<svg xmlns="http://www.w3.org/2000/svg" xmlns:xlink="http://www.w3.org/1999/xlink" version="1.1" viewBox="0 0 4858 3358" style="background: #ffffff"><defs joint-selector="defs"></defs><g  joint-selector="layers" transform="matrix(1,0,0,1,0,0)"><g ></g><g ><g   id="j_96"  transform="translate(20,3313)"><g id="v-1147"><text  id="v-1148" font-size="22px" xml:space="preserve" y="0.8em" font-weight="normal" text-anchor="start" fill="#aaaaaa" pointer-events="none" font-family="Open Sans"><tspan  dy="0">Sunday, March 12, 2023 at 11:38 AM Central European Standard Time</tspan></text></g></g><g   id="j_95"  transform="translate(20,3269)"><g id="v-1145"><text  id="v-1146" font-size="36px" xml:space="preserve" y="0.8em" font-weight="normal" text-anchor="start" fill="#000000" pointer-events="none" font-family="Open Sans"><tspan  dy="0">[Component] AngularAndSpring System - AngularAndSpring</tspan></text></g></g><g   id="j_59"  transform="translate(309,309)" style=""><g id="v-682"><rect  id="v-683" width="4240" height="2811" rx="0" ry="0" fill="#ffffff" stroke="#c7c7c7" stroke-width="1" stroke-dasharray="20,20" pointer-events="none"></rect><text  id="v-684" font-size="24px" xml:space="preserve" y="2772" font-weight="normal" fill="#c7c7c7" text-anchor="start" pointer-events="visible" font-family="Open Sans" transform="matrix(1,0,0,1,15,0)"><tspan  dy="0">AngularAndSpring</tspan></text><text  id="v-685" font-size="17px" xml:space="preserve" y="2796" font-weight="normal" fill="#c7c7c7" text-anchor="start" pointer-events="visible" font-family="Open Sans" transform="matrix(1,0,0,1,15,0)"><tspan  dy="0">[Container]</tspan></text><image  id="v-686" pointer-events="visible"></image></g></g><g   id="j_60"  transform="translate(3329,929)" style=""><g  id="v-690" style="opacity: 1;"><rect  id="v-691" rx="1" ry="1" stroke="#c7c7c7" stroke-width="2" pointer-events="visiblePainted" fill="#dddddd" width="450" height="300" style="fill: rgb(221, 221, 221); stroke: rgb(199, 199, 199);"></rect><text  id="v-692" font-size="34" xml:space="preserve" y="0.8em" font-weight="bold" text-anchor="middle" pointer-events="visible" font-family="Open Sans" fill="#000000" transform="matrix(1,0,0,1,225,85.5999984741211)" style="fill: rgb(0, 0, 0);"><tspan  dy="0">User Controller</tspan></text><text  id="v-693" font-size="17" xml:space="preserve" y="0.8em" text-anchor="middle" font-family="Open Sans" fill="#000000" transform="matrix(1,0,0,1,225,126.4000015258789)" style="fill: rgb(0, 0, 0);"><tspan  dy="0">[Component]</tspan></text><text  id="v-694" font-size="24" xml:space="preserve" y="0.8em" text-anchor="middle" font-family="Open Sans" fill="#000000" transform="matrix(1,0,0,1,225,156.8000030517578)" style="fill: rgb(0, 0, 0);"><tspan  dy="0">Provides the rest interface for</tspan><tspan dy="1.2em" x="0" >Login/Signin/Logout of the users.</tspan></text><g  id="v-695" color="#000000" opacity="0.75" transform="matrix(1,0,0,1,222.5,224.39999389648438)" style="fill: rgb(0, 0, 0);" display="none"><g ></g><g ></g><g ></g><g ></g></g><image  id="v-696"></image></g></g><g   id="j_61"  transform="translate(2579,929)" style=""><g  id="v-703" style="opacity: 1;"><rect  id="v-704" rx="1" ry="1" stroke="#c7c7c7" stroke-width="2" pointer-events="visiblePainted" fill="#dddddd" width="450" height="300" style="fill: rgb(221, 221, 221); stroke: rgb(199, 199, 199);"></rect><text  id="v-705" font-size="34" xml:space="preserve" y="0.8em" font-weight="bold" text-anchor="middle" pointer-events="visible" font-family="Open Sans" fill="#000000" transform="matrix(1,0,0,1,225,85.5999984741211)" style="fill: rgb(0, 0, 0);"><tspan  dy="0">Statistics Controller</tspan></text><text  id="v-706" font-size="17" xml:space="preserve" y="0.8em" text-anchor="middle" font-family="Open Sans" fill="#000000" transform="matrix(1,0,0,1,225,126.4000015258789)" style="fill: rgb(0, 0, 0);"><tspan  dy="0">[Component]</tspan></text><text  id="v-707" font-size="24" xml:space="preserve" y="0.8em" text-anchor="middle" font-family="Open Sans" fill="#000000" transform="matrix(1,0,0,1,225,156.8000030517578)" style="fill: rgb(0, 0, 0);"><tspan  dy="0">Provides the interface for the</tspan><tspan dy="1.2em" x="0" >statistics requests.</tspan></text><g  id="v-708" color="#000000" opacity="0.75" transform="matrix(1,0,0,1,222.5,224.39999389648438)" style="fill: rgb(0, 0, 0);" display="none"><g ></g><g ></g><g ></g><g ></g></g><image  id="v-709"></image></g></g><g   id="j_62"  transform="translate(4079,929)" style=""><g  id="v-713" style="opacity: 1;"><path  d="M 30,0 a 30,150 0,0,1 0 300 a 30,150 0,0,1 0 -300 l 390,0 a 30,150 0,0,1 0 300 l -390,0" id="v-714" stroke="#c7c7c7" stroke-width="2" pointer-events="visiblePainted" fill="#dddddd" style="fill: rgb(221, 221, 221); stroke: rgb(199, 199, 199);"></path><rect  id="v-715" stroke-width="0" pointer-events="visiblePainted" fill="none" stroke="none" width="420" height="300" x="30" y="0"></rect><text  id="v-716" font-size="34" xml:space="preserve" y="0.8em" font-weight="bold" text-anchor="middle" pointer-events="visible" font-family="Open Sans" fill="#000000" transform="matrix(1,0,0,1,240,100)" style="fill: rgb(0, 0, 0);"><tspan  dy="0">Kafka Consumer</tspan></text><text  id="v-717" font-size="17" xml:space="preserve" y="0.8em" text-anchor="middle" font-family="Open Sans" fill="#000000" transform="matrix(1,0,0,1,240,140.8000030517578)" style="fill: rgb(0, 0, 0);"><tspan  dy="0">[Component: tag]</tspan></text><text  id="v-718" font-size="24" xml:space="preserve" y="0.8em" text-anchor="middle" font-family="Open Sans" fill="#000000" transform="matrix(1,0,0,1,240,171.1999969482422)" style="fill: rgb(0, 0, 0);"><tspan  dy="0">Consume the Kafka events.</tspan></text><g  id="v-719" font-weight="normal" text-anchor="middle" color="#000000" opacity="0.75" transform="matrix(1,0,0,1,237.5,210)" style="fill: rgb(0, 0, 0);" display="none"><g ></g><g ></g><g ></g><g ></g></g><image  id="v-720"></image></g></g><g   id="j_63"  transform="translate(3479,2129)" style=""><g  id="v-724" style="opacity: 1;"><rect  id="v-725" rx="1" ry="1" stroke="#c7c7c7" stroke-width="2" pointer-events="visiblePainted" fill="#dddddd" width="450" height="300" style="fill: rgb(221, 221, 221); stroke: rgb(199, 199, 199);"></rect><text  id="v-726" font-size="34" xml:space="preserve" y="0.8em" font-weight="bold" text-anchor="middle" pointer-events="visible" font-family="Open Sans" fill="#000000" transform="matrix(1,0,0,1,225,100)" style="fill: rgb(0, 0, 0);"><tspan  dy="0">Kafka Producer</tspan></text><text  id="v-727" font-size="17" xml:space="preserve" y="0.8em" text-anchor="middle" font-family="Open Sans" fill="#000000" transform="matrix(1,0,0,1,225,140.8000030517578)" style="fill: rgb(0, 0, 0);"><tspan  dy="0">[Component]</tspan></text><text  id="v-728" font-size="24" xml:space="preserve" y="0.8em" text-anchor="middle" font-family="Open Sans" fill="#000000" transform="matrix(1,0,0,1,225,171.1999969482422)" style="fill: rgb(0, 0, 0);"><tspan  dy="0">Produce the Kafka events.</tspan></text><g  id="v-729" color="#000000" opacity="0.75" transform="matrix(1,0,0,1,222.5,210)" style="fill: rgb(0, 0, 0);" display="none"><g ></g><g ></g><g ></g><g ></g></g><image  id="v-730"></image></g></g><g   id="j_64"  transform="translate(2591,2129)" style=""><g  id="v-734" style="opacity: 1;"><rect  id="v-735" rx="1" ry="1" stroke="#c7c7c7" stroke-width="2" pointer-events="visiblePainted" fill="#dddddd" width="450" height="300" style="fill: rgb(221, 221, 221); stroke: rgb(199, 199, 199);"></rect><text  id="v-736" font-size="34" xml:space="preserve" y="0.8em" font-weight="bold" text-anchor="middle" pointer-events="visible" font-family="Open Sans" fill="#000000" transform="matrix(1,0,0,1,225,85.5999984741211)" style="fill: rgb(0, 0, 0);"><tspan  dy="0">Repository</tspan></text><text  id="v-737" font-size="17" xml:space="preserve" y="0.8em" text-anchor="middle" font-family="Open Sans" fill="#000000" transform="matrix(1,0,0,1,225,126.4000015258789)" style="fill: rgb(0, 0, 0);"><tspan  dy="0">[Component]</tspan></text><text  id="v-738" font-size="24" xml:space="preserve" y="0.8em" text-anchor="middle" font-family="Open Sans" fill="#000000" transform="matrix(1,0,0,1,225,156.8000030517578)" style="fill: rgb(0, 0, 0);"><tspan  dy="0">MongoDb repository to read / write</tspan><tspan dy="1.2em" x="0" >data</tspan></text><g  id="v-739" color="#000000" opacity="0.75" transform="matrix(1,0,0,1,222.5,224.39999389648438)" style="fill: rgb(0, 0, 0);" display="none"><g ></g><g ></g><g ></g><g ></g></g><image  id="v-740"></image></g></g><g   id="j_65"  transform="translate(3770,2729)" style=""><g  id="v-744" style="opacity: 1;"><rect  id="v-745" rx="1" ry="1" stroke="#c7c7c7" stroke-width="2" pointer-events="visiblePainted" fill="#dddddd" width="450" height="300" style="fill: rgb(221, 221, 221); stroke: rgb(199, 199, 199);"></rect><text  id="v-746" font-size="34" xml:space="preserve" y="0.8em" font-weight="bold" text-anchor="middle" pointer-events="visible" font-family="Open Sans" fill="#000000" transform="matrix(1,0,0,1,225,85.5999984741211)" style="fill: rgb(0, 0, 0);"><tspan  dy="0">Event Mapper</tspan></text><text  id="v-747" font-size="17" xml:space="preserve" y="0.8em" text-anchor="middle" font-family="Open Sans" fill="#000000" transform="matrix(1,0,0,1,225,126.4000015258789)" style="fill: rgb(0, 0, 0);"><tspan  dy="0">[Component]</tspan></text><text  id="v-748" font-size="24" xml:space="preserve" y="0.8em" text-anchor="middle" font-family="Open Sans" fill="#000000" transform="matrix(1,0,0,1,225,156.8000030517578)" style="fill: rgb(0, 0, 0);"><tspan  dy="0">Map the Kafka Events to Entities /</tspan><tspan dy="1.2em" x="0" >Dtos.</tspan></text><g  id="v-749" color="#000000" opacity="0.75" transform="matrix(1,0,0,1,222.5,224.39999389648438)" style="fill: rgb(0, 0, 0);" display="none"><g ></g><g ></g><g ></g><g ></g></g><image  id="v-750"></image></g></g><g   id="j_66"  transform="translate(1083,1529)" style=""><g  id="v-757" style="opacity: 1;"><rect  id="v-758" rx="1" ry="1" stroke="#c7c7c7" stroke-width="2" pointer-events="visiblePainted" fill="#dddddd" width="450" height="300" style="fill: rgb(221, 221, 221); stroke: rgb(199, 199, 199);"></rect><text  id="v-759" font-size="34" xml:space="preserve" y="0.8em" font-weight="bold" text-anchor="middle" pointer-events="visible" font-family="Open Sans" fill="#000000" transform="matrix(1,0,0,1,225,85.5999984741211)" style="fill: rgb(0, 0, 0);"><tspan  dy="0">Exchange Services</tspan></text><text  id="v-760" font-size="17" xml:space="preserve" y="0.8em" text-anchor="middle" font-family="Open Sans" fill="#000000" transform="matrix(1,0,0,1,225,126.4000015258789)" style="fill: rgb(0, 0, 0);"><tspan  dy="0">[Component]</tspan></text><text  id="v-761" font-size="24" xml:space="preserve" y="0.8em" text-anchor="middle" font-family="Open Sans" fill="#000000" transform="matrix(1,0,0,1,225,156.8000030517578)" style="fill: rgb(0, 0, 0);"><tspan  dy="0">Services implementing the</tspan><tspan dy="1.2em" x="0" >exchange logic.</tspan></text><g  id="v-762" color="#000000" opacity="0.75" transform="matrix(1,0,0,1,222.5,224.39999389648438)" style="fill: rgb(0, 0, 0);" display="none"><g ></g><g ></g><g ></g><g ></g></g><image  id="v-763"></image></g></g><g   id="j_67"  transform="translate(3450,1529)" style=""><g  id="v-767" style="opacity: 1;"><rect  id="v-768" rx="1" ry="1" stroke="#c7c7c7" stroke-width="2" pointer-events="visiblePainted" fill="#dddddd" width="450" height="300" style="fill: rgb(221, 221, 221); stroke: rgb(199, 199, 199);"></rect><text  id="v-769" font-size="34" xml:space="preserve" y="0.8em" font-weight="bold" text-anchor="middle" pointer-events="visible" font-family="Open Sans" fill="#000000" transform="matrix(1,0,0,1,225,85.5999984741211)" style="fill: rgb(0, 0, 0);"><tspan  dy="0">User Service</tspan></text><text  id="v-770" font-size="17" xml:space="preserve" y="0.8em" text-anchor="middle" font-family="Open Sans" fill="#000000" transform="matrix(1,0,0,1,225,126.4000015258789)" style="fill: rgb(0, 0, 0);"><tspan  dy="0">[Component]</tspan></text><text  id="v-771" font-size="24" xml:space="preserve" y="0.8em" text-anchor="middle" font-family="Open Sans" fill="#000000" transform="matrix(1,0,0,1,225,156.8000030517578)" style="fill: rgb(0, 0, 0);"><tspan  dy="0">Service implementing the user /</tspan><tspan dy="1.2em" x="0" >Kafka logic.</tspan></text><g  id="v-772" color="#000000" opacity="0.75" transform="matrix(1,0,0,1,222.5,224.39999389648438)" style="fill: rgb(0, 0, 0);" display="none"><g ></g><g ></g><g ></g><g ></g></g><image  id="v-773"></image></g></g><g   id="j_68"  transform="translate(2591,1529)" style=""><g  id="v-780" style="opacity: 1;"><rect  id="v-781" rx="1" ry="1" stroke="#c7c7c7" stroke-width="2" pointer-events="visiblePainted" fill="#dddddd" width="450" height="300" style="fill: rgb(221, 221, 221); stroke: rgb(199, 199, 199);"></rect><text  id="v-782" font-size="34" xml:space="preserve" y="0.8em" font-weight="bold" text-anchor="middle" pointer-events="visible" font-family="Open Sans" fill="#000000" transform="matrix(1,0,0,1,225,85.5999984741211)" style="fill: rgb(0, 0, 0);"><tspan  dy="0">Statistics Service</tspan></text><text  id="v-783" font-size="17" xml:space="preserve" y="0.8em" text-anchor="middle" font-family="Open Sans" fill="#000000" transform="matrix(1,0,0,1,225,126.4000015258789)" style="fill: rgb(0, 0, 0);"><tspan  dy="0">[Component]</tspan></text><text  id="v-784" font-size="24" xml:space="preserve" y="0.8em" text-anchor="middle" font-family="Open Sans" fill="#000000" transform="matrix(1,0,0,1,225,156.8000030517578)" style="fill: rgb(0, 0, 0);"><tspan  dy="0">Service implementing the statistics</tspan><tspan dy="1.2em" x="0" >logic.</tspan></text><g  id="v-785" color="#000000" opacity="0.75" transform="matrix(1,0,0,1,222.5,224.39999389648438)" style="fill: rgb(0, 0, 0);" display="none"><g ></g><g ></g><g ></g><g ></g></g><image  id="v-786"></image></g></g><g   id="j_69"  transform="translate(2579,329)" style=""><g  id="v-793" style="opacity: 1;"><rect  id="v-794" rx="10" ry="10" stroke="#c7c7c7" stroke-width="2" pointer-events="visiblePainted" fill="#c7c7c7" width="450" height="300" style="fill: rgb(199, 199, 199); stroke: rgb(199, 199, 199);"></rect><rect  id="v-795" rx="10" ry="10" stroke="#c7c7c7" stroke-width="0" pointer-events="visiblePainted" fill="#dddddd" width="430" height="250" x="10" y="40" style="fill: rgb(221, 221, 221);"></rect><ellipse  id="v-802" fill="#dddddd" cx="20" cy="20" rx="10" ry="10" style="fill: rgb(221, 221, 221);"></ellipse><ellipse  id="v-803" fill="#dddddd" cx="50" cy="20" rx="10" ry="10" style="fill: rgb(221, 221, 221);"></ellipse><ellipse  id="v-804" fill="#dddddd" cx="80" cy="20" rx="10" ry="10" style="fill: rgb(221, 221, 221);"></ellipse><rect  id="v-796" rx="10" ry="10" stroke="#444444" stroke-width="0" pointer-events="visiblePainted" fill="#dddddd" width="340" height="20" x="100" y="10" style="fill: rgb(221, 221, 221);"></rect><text  id="v-797" font-size="34" xml:space="preserve" y="0.8em" font-weight="bold" text-anchor="middle" pointer-events="visible" font-family="Open Sans" fill="#000000" transform="matrix(1,0,0,1,225,100.5999984741211)" style="fill: rgb(0, 0, 0);"><tspan  dy="0">Angular Frontend</tspan></text><text  id="v-798" font-size="17" xml:space="preserve" y="0.8em" text-anchor="middle" font-family="Open Sans" fill="#000000" transform="matrix(1,0,0,1,225,141.39999389648438)" style="fill: rgb(0, 0, 0);"><tspan  dy="0">[Component: tag]</tspan></text><text  id="v-799" font-size="24" xml:space="preserve" y="0.8em" text-anchor="middle" font-family="Open Sans" fill="#000000" transform="matrix(1,0,0,1,225,171.8000030517578)" style="fill: rgb(0, 0, 0);"><tspan  dy="0">The SPA shows the quotes / charts /</tspan><tspan dy="1.2em" x="0" >statistics / order books</tspan></text><g  id="v-800" font-weight="normal" text-anchor="middle" color="#000000" opacity="0.75" transform="matrix(1,0,0,1,222.5,239.39999389648438)" style="fill: rgb(0, 0, 0);" display="none"><g ></g><g ></g><g ></g><g ></g></g><image  id="v-801"></image></g></g><g   id="j_70"  transform="translate(704,329)" style=""><g  id="v-808" style="opacity: 1;"><ellipse  id="v-809" stroke="#c7c7c7" stroke-width="2" pointer-events="visiblePainted" fill="#dddddd" cx="225" cy="225" rx="225" ry="225" style="fill: rgb(221, 221, 221); stroke: rgb(199, 199, 199);"></ellipse><text  id="v-810" font-size="34" xml:space="preserve" y="0.8em" font-weight="bold" text-anchor="middle" pointer-events="visible" font-family="Open Sans" fill="#000000" transform="matrix(1,0,0,1,225,175)" style="fill: rgb(0, 0, 0);"><tspan  dy="0">Scheduler</tspan></text><text  id="v-811" font-size="17" xml:space="preserve" y="0.8em" text-anchor="middle" font-family="Open Sans" fill="#000000" transform="matrix(1,0,0,1,225,215.8000030517578)" style="fill: rgb(0, 0, 0);"><tspan  dy="0">[Component: tag]</tspan></text><text  id="v-812" font-size="24" xml:space="preserve" y="0.8em" text-anchor="middle" font-family="Open Sans" fill="#000000" transform="matrix(1,0,0,1,225,246.1999969482422)" style="fill: rgb(0, 0, 0);"><tspan  dy="0">Start the scheduled jobs.</tspan></text><g  id="v-813" font-weight="normal" text-anchor="middle" color="#000000" opacity="0.75" transform="matrix(1,0,0,1,222.5,285)" style="fill: rgb(0, 0, 0);" display="none"><g ></g><g ></g><g ></g><g ></g></g><image  id="v-814"></image></g></g><g   id="j_71"  transform="translate(329,929)" style=""><g  id="v-818" style="opacity: 1;"><rect  id="v-819" rx="1" ry="1" stroke="#c7c7c7" stroke-width="2" pointer-events="visiblePainted" fill="#dddddd" width="450" height="300" style="fill: rgb(221, 221, 221); stroke: rgb(199, 199, 199);"></rect><text  id="v-820" font-size="34" xml:space="preserve" y="0.8em" font-weight="bold" text-anchor="middle" pointer-events="visible" font-family="Open Sans" fill="#000000" transform="matrix(1,0,0,1,225,85.5999984741211)" style="fill: rgb(0, 0, 0);"><tspan  dy="0">Rest Clients</tspan></text><text  id="v-821" font-size="17" xml:space="preserve" y="0.8em" text-anchor="middle" font-family="Open Sans" fill="#000000" transform="matrix(1,0,0,1,225,126.4000015258789)" style="fill: rgb(0, 0, 0);"><tspan  dy="0">[Component]</tspan></text><text  id="v-822" font-size="24" xml:space="preserve" y="0.8em" text-anchor="middle" font-family="Open Sans" fill="#000000" transform="matrix(1,0,0,1,225,156.8000030517578)" style="fill: rgb(0, 0, 0);"><tspan  dy="0">The rest clients request the quotes</tspan><tspan dy="1.2em" x="0" >from the exchanges.</tspan></text><g  id="v-823" color="#000000" opacity="0.75" transform="matrix(1,0,0,1,222.5,224.39999389648438)" style="fill: rgb(0, 0, 0);" display="none"><g ></g><g ></g><g ></g><g ></g></g><image  id="v-824"></image></g></g><g   id="j_72"  transform="translate(1079,929)" style=""><g  id="v-831" style="opacity: 1;"><rect  id="v-832" rx="1" ry="1" stroke="#c7c7c7" stroke-width="2" pointer-events="visiblePainted" fill="#dddddd" width="450" height="300" style="fill: rgb(221, 221, 221); stroke: rgb(199, 199, 199);"></rect><text  id="v-833" font-size="34" xml:space="preserve" y="0.8em" font-weight="bold" text-anchor="middle" pointer-events="visible" font-family="Open Sans" fill="#000000" transform="matrix(1,0,0,1,225,85.5999984741211)" style="fill: rgb(0, 0, 0);"><tspan  dy="0">Prepare Data Job</tspan></text><text  id="v-834" font-size="17" xml:space="preserve" y="0.8em" text-anchor="middle" font-family="Open Sans" fill="#000000" transform="matrix(1,0,0,1,225,126.4000015258789)" style="fill: rgb(0, 0, 0);"><tspan  dy="0">[Component]</tspan></text><text  id="v-835" font-size="24" xml:space="preserve" y="0.8em" text-anchor="middle" font-family="Open Sans" fill="#000000" transform="matrix(1,0,0,1,225,156.8000030517578)" style="fill: rgb(0, 0, 0);"><tspan  dy="0">Aggrigates the quotes to hour / day</tspan><tspan dy="1.2em" x="0" >values.</tspan></text><g  id="v-836" color="#000000" opacity="0.75" transform="matrix(1,0,0,1,222.5,224.39999389648438)" style="fill: rgb(0, 0, 0);" display="none"><g ></g><g ></g><g ></g><g ></g></g><image  id="v-837"></image></g></g><g   id="j_73"  transform="translate(1841,1529)" style=""><g  id="v-844" style="opacity: 1;"><rect  id="v-845" rx="1" ry="1" stroke="#c7c7c7" stroke-width="2" pointer-events="visiblePainted" fill="#dddddd" width="450" height="300" style="fill: rgb(221, 221, 221); stroke: rgb(199, 199, 199);"></rect><text  id="v-846" font-size="34" xml:space="preserve" y="0.8em" font-weight="bold" text-anchor="middle" pointer-events="visible" font-family="Open Sans" fill="#000000" transform="matrix(1,0,0,1,225,85.5999984741211)" style="fill: rgb(0, 0, 0);"><tspan  dy="0">Jwt Token Filters</tspan></text><text  id="v-847" font-size="17" xml:space="preserve" y="0.8em" text-anchor="middle" font-family="Open Sans" fill="#000000" transform="matrix(1,0,0,1,225,126.4000015258789)" style="fill: rgb(0, 0, 0);"><tspan  dy="0">[Component]</tspan></text><text  id="v-848" font-size="24" xml:space="preserve" y="0.8em" text-anchor="middle" font-family="Open Sans" fill="#000000" transform="matrix(1,0,0,1,225,156.8000030517578)" style="fill: rgb(0, 0, 0);"><tspan  dy="0">Provide the security based on Jwt</tspan><tspan dy="1.2em" x="0" >Tokens.</tspan></text><g  id="v-849" color="#000000" opacity="0.75" transform="matrix(1,0,0,1,222.5,224.39999389648438)" style="fill: rgb(0, 0, 0);" display="none"><g ></g><g ></g><g ></g><g ></g></g><image  id="v-850"></image></g></g><g   id="j_74"  transform="translate(1829,929)" style=""><g  id="v-857" style="opacity: 1;"><rect  id="v-858" rx="1" ry="1" stroke="#c7c7c7" stroke-width="2" pointer-events="visiblePainted" fill="#dddddd" width="450" height="300" style="fill: rgb(221, 221, 221); stroke: rgb(199, 199, 199);"></rect><text  id="v-859" font-size="34" xml:space="preserve" y="0.8em" font-weight="bold" text-anchor="middle" pointer-events="visible" font-family="Open Sans" fill="#000000" transform="matrix(1,0,0,1,225,85.5999984741211)" style="fill: rgb(0, 0, 0);"><tspan  dy="0">Exchange Controllers</tspan></text><text  id="v-860" font-size="17" xml:space="preserve" y="0.8em" text-anchor="middle" font-family="Open Sans" fill="#000000" transform="matrix(1,0,0,1,225,126.4000015258789)" style="fill: rgb(0, 0, 0);"><tspan  dy="0">[Component]</tspan></text><text  id="v-861" font-size="24" xml:space="preserve" y="0.8em" text-anchor="middle" font-family="Open Sans" fill="#000000" transform="matrix(1,0,0,1,225,156.8000030517578)" style="fill: rgb(0, 0, 0);"><tspan  dy="0">Provide the rest interface for the</tspan><tspan dy="1.2em" x="0" >quote / order book requests</tspan></text><g  id="v-862" color="#000000" opacity="0.75" transform="matrix(1,0,0,1,222.5,224.39999389648438)" style="fill: rgb(0, 0, 0);" display="none"><g ></g><g ></g><g ></g><g ></g></g><image  id="v-863"></image></g></g><g   id="j_75" ><path  stroke="#707070" d="M 3584 1229 L 3645 1529" id="v-873" stroke-width="2" stroke-dasharray="30 30" fill="none" style="opacity: 1;"></path><path  fill="black" stroke="black" d="M 0 0 0 0" transform="matrix(0.19768686592578888,0.980265200138092,-0.980265200138092,0.19768686592578888,3584.25,1229)"></path><path  fill="#707070" stroke="#707070" d="M 20 0 L 0 10 L 20 20 z" id="v-875" transform="matrix(-0.19768700003623962,-0.980265200138092,0.980265200138092,-0.19768700003623962,3634.947509765625,1530.9769287109375)" style="opacity: 1;"></path><path  d="M 3584 1229 L 3645 1529" id="v-874" fill="none" style="cursor: auto; pointer-events: visiblepainted;"></path><g ><g id="v-867"  label-idx="0" cursor="move" transform="matrix(1,0,0,1,3614.5,1379)" style="cursor: default; opacity: 1;"><rect joint-selector="rect" id="v-870" fill="#ffffff" rx="3" ry="3" stroke="#ffffff" stroke-width="20px" pointer-events="none" width="0" height="0" transform="matrix(1,0,0,1,0,0)"></rect><text joint-selector="text" id="v-869" font-size="24px" xml:space="preserve" display="none" y="0.8em" fill="#707070" text-anchor="middle" pointer-events="none" font-family="Open Sans" font-weight="normal"><tspan style="fill-opacity: 0; stroke-opacity: 0;"  dy="0">-</tspan></text></g><g id="v-868"  label-idx="1" cursor="move" transform="matrix(1,0,0,1,3604.5,1389)" style="cursor: default; opacity: 1;"><rect joint-selector="rect" id="v-872" fill="#ffffff" rx="3" ry="3"  width="0" height="0" transform="matrix(1,0,0,1,0,0)" display="none"></rect><text joint-selector="text" id="v-871" fill="#000000" font-size="14" text-anchor="middle" pointer-events="none"></text></g></g><g  display="none" style="display: none;"></g><g  id="v-877" display="none"><g  id="v-865"><path  end="source" d="M 26 0 L 0 13 L 26 26 z"></path></g><g  id="v-866"><path  end="target" d="M 26 0 L 0 13 L 26 26 z"></path></g></g><g  id="v-876" display="none"><g  id="v-864" transform="translate(3591.9702394555698, 1268.1978989618178) "><g  event="remove"><circle r="11"></circle><path transform="scale(.8) translate(-16, -16)" d="M24.778,21.419 19.276,15.917 24.777,10.415 21.949,7.585 16.447,13.087 10.945,7.585 8.117,10.415 13.618,15.917 8.116,21.419 10.946,24.248 16.447,18.746 21.948,24.248z"></path><title>Remove link.</title></g><g  event="link:options"><circle r="11" transform="translate(25)"></circle><path fill="white" transform="scale(.55) translate(29, -16)" d="M31.229,17.736c0.064-0.571,0.104-1.148,0.104-1.736s-0.04-1.166-0.104-1.737l-4.377-1.557c-0.218-0.716-0.504-1.401-0.851-2.05l1.993-4.192c-0.725-0.91-1.549-1.734-2.458-2.459l-4.193,1.994c-0.647-0.347-1.334-0.632-2.049-0.849l-1.558-4.378C17.165,0.708,16.588,0.667,16,0.667s-1.166,0.041-1.737,0.105L12.707,5.15c-0.716,0.217-1.401,0.502-2.05,0.849L6.464,4.005C5.554,4.73,4.73,5.554,4.005,6.464l1.994,4.192c-0.347,0.648-0.632,1.334-0.849,2.05l-4.378,1.557C0.708,14.834,0.667,15.412,0.667,16s0.041,1.165,0.105,1.736l4.378,1.558c0.217,0.715,0.502,1.401,0.849,2.049l-1.994,4.193c0.725,0.909,1.549,1.733,2.459,2.458l4.192-1.993c0.648,0.347,1.334,0.633,2.05,0.851l1.557,4.377c0.571,0.064,1.148,0.104,1.737,0.104c0.588,0,1.165-0.04,1.736-0.104l1.558-4.377c0.715-0.218,1.399-0.504,2.049-0.851l4.193,1.993c0.909-0.725,1.733-1.549,2.458-2.458l-1.993-4.193c0.347-0.647,0.633-1.334,0.851-2.049L31.229,17.736zM16,20.871c-2.69,0-4.872-2.182-4.872-4.871c0-2.69,2.182-4.872,4.872-4.872c2.689,0,4.871,2.182,4.871,4.872C20.871,18.689,18.689,20.871,16,20.871z"></path><title>Link options.</title></g></g></g></g><g   id="j_76" ><path  stroke="#707070" d="M 2807 1229 L 2813 1529" id="v-887" stroke-width="2" stroke-dasharray="30 30" fill="none" style="opacity: 1;"></path><path  fill="black" stroke="black" d="M 0 0 0 0" transform="matrix(0.01999594457447529,0.9998000860214233,-0.9998000860214233,0.01999594457447529,2807,1229)"></path><path  fill="#707070" stroke="#707070" d="M 20 0 L 0 10 L 20 20 z" id="v-889" transform="matrix(-0.019995810464024544,-0.9998000860214233,0.9998000860214233,-0.019995810464024544,2803.001953125,1529.199951171875)" style="opacity: 1;"></path><path  d="M 2807 1229 L 2813 1529" id="v-888" fill="none" style="cursor: auto; pointer-events: visiblepainted;"></path><g ><g id="v-881"  label-idx="0" cursor="move" transform="matrix(1,0,0,1,2810,1379)" style="cursor: default; opacity: 1;"><rect joint-selector="rect" id="v-884" fill="#ffffff" rx="3" ry="3" stroke="#ffffff" stroke-width="20px" pointer-events="none" width="0" height="0" transform="matrix(1,0,0,1,0,0)"></rect><text joint-selector="text" id="v-883" font-size="24px" xml:space="preserve" display="none" y="0.8em" fill="#707070" text-anchor="middle" pointer-events="none" font-family="Open Sans" font-weight="normal"><tspan style="fill-opacity: 0; stroke-opacity: 0;"  dy="0">-</tspan></text></g><g id="v-882"  label-idx="1" cursor="move" transform="matrix(1,0,0,1,2800,1389)" style="cursor: default; opacity: 1;"><rect joint-selector="rect" id="v-886" fill="#ffffff" rx="3" ry="3"  width="0" height="0" transform="matrix(1,0,0,1,0,0)" display="none"></rect><text joint-selector="text" id="v-885" fill="#000000" font-size="14" text-anchor="middle" pointer-events="none"></text></g></g><g  display="none" style="display: none;"></g><g  id="v-891" display="none"><g  id="v-879"><path  end="source" d="M 26 0 L 0 13 L 26 26 z"></path></g><g  id="v-880"><path  end="target" d="M 26 0 L 0 13 L 26 26 z"></path></g></g><g  id="v-890" display="none"><g  id="v-878" transform="translate(2807.799840047984, 1268.9920023992004) "><g  event="remove"><circle r="11"></circle><path transform="scale(.8) translate(-16, -16)" d="M24.778,21.419 19.276,15.917 24.777,10.415 21.949,7.585 16.447,13.087 10.945,7.585 8.117,10.415 13.618,15.917 8.116,21.419 10.946,24.248 16.447,18.746 21.948,24.248z"></path><title>Remove link.</title></g><g  event="link:options"><circle r="11" transform="translate(25)"></circle><path fill="white" transform="scale(.55) translate(29, -16)" d="M31.229,17.736c0.064-0.571,0.104-1.148,0.104-1.736s-0.04-1.166-0.104-1.737l-4.377-1.557c-0.218-0.716-0.504-1.401-0.851-2.05l1.993-4.192c-0.725-0.91-1.549-1.734-2.458-2.459l-4.193,1.994c-0.647-0.347-1.334-0.632-2.049-0.849l-1.558-4.378C17.165,0.708,16.588,0.667,16,0.667s-1.166,0.041-1.737,0.105L12.707,5.15c-0.716,0.217-1.401,0.502-2.05,0.849L6.464,4.005C5.554,4.73,4.73,5.554,4.005,6.464l1.994,4.192c-0.347,0.648-0.632,1.334-0.849,2.05l-4.378,1.557C0.708,14.834,0.667,15.412,0.667,16s0.041,1.165,0.105,1.736l4.378,1.558c0.217,0.715,0.502,1.401,0.849,2.049l-1.994,4.193c0.725,0.909,1.549,1.733,2.459,2.458l4.192-1.993c0.648,0.347,1.334,0.633,2.05,0.851l1.557,4.377c0.571,0.064,1.148,0.104,1.737,0.104c0.588,0,1.165-0.04,1.736-0.104l1.558-4.377c0.715-0.218,1.399-0.504,2.049-0.851l4.193,1.993c0.909-0.725,1.733-1.549,2.458-2.458l-1.993-4.193c0.347-0.647,0.633-1.334,0.851-2.049L31.229,17.736zM16,20.871c-2.69,0-4.872-2.182-4.872-4.871c0-2.69,2.182-4.872,4.872-4.872c2.689,0,4.871,2.182,4.871,4.872C20.871,18.689,18.689,20.871,16,20.871z"></path><title>Link options.</title></g></g></g></g><g   id="j_77" ><path  stroke="#707070" d="M 3777 2429 L 3922 2729" id="v-901" stroke-width="2" stroke-dasharray="30 30" fill="none" style="opacity: 1;"></path><path  fill="black" stroke="black" d="M 0 0 0 0" transform="matrix(0.43638384342193604,0.8997606039047241,-0.8997606039047241,0.43638384342193604,3776.75,2429)"></path><path  fill="#707070" stroke="#707070" d="M 20 0 L 0 10 L 20 20 z" id="v-903" transform="matrix(-0.43638384342193604,-0.8997606039047241,0.8997606039047241,-0.43638384342193604,3913.25244140625,2733.36376953125)" style="opacity: 1;"></path><path  d="M 3777 2429 L 3922 2729" id="v-902" fill="none" style="cursor: auto; pointer-events: visiblepainted;"></path><g ><g id="v-895"  label-idx="0" cursor="move" transform="matrix(1,0,0,1,3849.5,2579)" style="cursor: default; opacity: 1;"><rect joint-selector="rect" id="v-898" fill="#ffffff" rx="3" ry="3" stroke="#ffffff" stroke-width="20px" pointer-events="none" width="0" height="0" transform="matrix(1,0,0,1,0,0)"></rect><text joint-selector="text" id="v-897" font-size="24px" xml:space="preserve" display="none" y="0.8em" fill="#707070" text-anchor="middle" pointer-events="none" font-family="Open Sans" font-weight="normal"><tspan style="fill-opacity: 0; stroke-opacity: 0;"  dy="0">-</tspan></text></g><g id="v-896"  label-idx="1" cursor="move" transform="matrix(1,0,0,1,3839.5,2589)" style="cursor: default; opacity: 1;"><rect joint-selector="rect" id="v-900" fill="#ffffff" rx="3" ry="3"  width="0" height="0" transform="matrix(1,0,0,1,0,0)" display="none"></rect><text joint-selector="text" id="v-899" fill="#000000" font-size="14" text-anchor="middle" pointer-events="none"></text></g></g><g  display="none" style="display: none;"></g><g  id="v-905" display="none"><g  id="v-893"><path  end="source" d="M 26 0 L 0 13 L 26 26 z"></path></g><g  id="v-894"><path  end="target" d="M 26 0 L 0 13 L 26 26 z"></path></g></g><g  id="v-904" display="none"><g  id="v-892" transform="translate(3794.406746421611, 2465.0139581136777) "><g  event="remove"><circle r="11"></circle><path transform="scale(.8) translate(-16, -16)" d="M24.778,21.419 19.276,15.917 24.777,10.415 21.949,7.585 16.447,13.087 10.945,7.585 8.117,10.415 13.618,15.917 8.116,21.419 10.946,24.248 16.447,18.746 21.948,24.248z"></path><title>Remove link.</title></g><g  event="link:options"><circle r="11" transform="translate(25)"></circle><path fill="white" transform="scale(.55) translate(29, -16)" d="M31.229,17.736c0.064-0.571,0.104-1.148,0.104-1.736s-0.04-1.166-0.104-1.737l-4.377-1.557c-0.218-0.716-0.504-1.401-0.851-2.05l1.993-4.192c-0.725-0.91-1.549-1.734-2.458-2.459l-4.193,1.994c-0.647-0.347-1.334-0.632-2.049-0.849l-1.558-4.378C17.165,0.708,16.588,0.667,16,0.667s-1.166,0.041-1.737,0.105L12.707,5.15c-0.716,0.217-1.401,0.502-2.05,0.849L6.464,4.005C5.554,4.73,4.73,5.554,4.005,6.464l1.994,4.192c-0.347,0.648-0.632,1.334-0.849,2.05l-4.378,1.557C0.708,14.834,0.667,15.412,0.667,16s0.041,1.165,0.105,1.736l4.378,1.558c0.217,0.715,0.502,1.401,0.849,2.049l-1.994,4.193c0.725,0.909,1.549,1.733,2.459,2.458l4.192-1.993c0.648,0.347,1.334,0.633,2.05,0.851l1.557,4.377c0.571,0.064,1.148,0.104,1.737,0.104c0.588,0,1.165-0.04,1.736-0.104l1.558-4.377c0.715-0.218,1.399-0.504,2.049-0.851l4.193,1.993c0.909-0.725,1.733-1.549,2.458-2.458l-1.993-4.193c0.347-0.647,0.633-1.334,0.851-2.049L31.229,17.736zM16,20.871c-2.69,0-4.872-2.182-4.872-4.871c0-2.69,2.182-4.872,4.872-4.872c2.689,0,4.871,2.182,4.871,4.872C20.871,18.689,18.689,20.871,16,20.871z"></path><title>Link options.</title></g></g></g></g><g   id="j_78" ><path  stroke="#707070" d="M 4279 1229 L 4081 2419 C 4079.666666666666 2425.6666666666665 4078.333333333333 2432.333333333333 4077 2439 L 4023 2729" id="v-916" stroke-width="2" stroke-dasharray="30 30" fill="none" style="opacity: 1;"></path><path  fill="black" stroke="black" d="M 0 0 0 0" transform="matrix(-0.1643989235162735,0.986393928527832,-0.986393928527832,-0.1643989235162735,4279,1229)"></path><path  fill="#707070" stroke="#707070" d="M 20 0 L 0 10 L 20 20 z" id="v-918" transform="matrix(0.18349699676036835,-0.9830202460289001,0.9830202460289001,0.18349699676036835,4013.169677734375,2727.164794921875)" style="opacity: 1;"></path><path  d="M 4279 1229 L 4081 2419 C 4079.666666666666 2425.6666666666665 4078.333333333333 2432.333333333333 4077 2439 L 4023 2729" id="v-917" fill="none" style="cursor: auto; pointer-events: visiblepainted;"></path><g ><g id="v-910"  label-idx="0" cursor="move" transform="matrix(1,0,0,1,4154.1181640625,1979.5518798828125)" style="cursor: default; opacity: 1;"><rect joint-selector="rect" id="v-913" fill="#ffffff" rx="3" ry="3" stroke="#ffffff" stroke-width="20px" pointer-events="none" width="0" height="0" transform="matrix(1,0,0,1,0,0)"></rect><text joint-selector="text" id="v-912" font-size="24px" xml:space="preserve" display="none" y="0.8em" fill="#707070" text-anchor="middle" pointer-events="none" font-family="Open Sans" font-weight="normal"><tspan style="fill-opacity: 0; stroke-opacity: 0;"  dy="0">-</tspan></text></g><g id="v-911"  label-idx="1" cursor="move" transform="matrix(1,0,0,1,4144.1181640625,1989.5518798828125)" style="cursor: default; opacity: 1;"><rect joint-selector="rect" id="v-915" fill="#ffffff" rx="3" ry="3"  width="0" height="0" transform="matrix(1,0,0,1,0,0)" display="none"></rect><text joint-selector="text" id="v-914" fill="#000000" font-size="14" text-anchor="middle" pointer-events="none"></text></g></g><g  display="none" style="display: none;"><g  transform="translate(4079, 2429)" id="v-907"><circle  idx="0" r="10"></circle><path  idx="0" d="M16,5.333c-7.732,0-14,4.701-14,10.5c0,1.982,0.741,3.833,2.016,5.414L2,25.667l5.613-1.441c2.339,1.317,5.237,2.107,8.387,2.107c7.732,0,14-4.701,14-10.5C30,10.034,23.732,5.333,16,5.333z" transform="translate(5, -33)"></path><path  idx="0" transform="scale(.8) translate(9.5, -37)" d="M24.778,21.419 19.276,15.917 24.777,10.415 21.949,7.585 16.447,13.087 10.945,7.585 8.117,10.415 13.618,15.917 8.116,21.419 10.946,24.248 16.447,18.746 21.948,24.248z"><title>Remove vertex.</title></path></g></g><g  id="v-920" display="none"><g  id="v-908"><path  end="source" d="M 26 0 L 0 13 L 26 26 z"></path></g><g  id="v-909"><path  end="target" d="M 26 0 L 0 13 L 26 26 z"></path></g></g><g  id="v-919" display="none"><g  id="v-906" transform="translate(4272.434794569284, 1268.4575477906637) "><g  event="remove"><circle r="11"></circle><path transform="scale(.8) translate(-16, -16)" d="M24.778,21.419 19.276,15.917 24.777,10.415 21.949,7.585 16.447,13.087 10.945,7.585 8.117,10.415 13.618,15.917 8.116,21.419 10.946,24.248 16.447,18.746 21.948,24.248z"></path><title>Remove link.</title></g><g  event="link:options"><circle r="11" transform="translate(25)"></circle><path fill="white" transform="scale(.55) translate(29, -16)" d="M31.229,17.736c0.064-0.571,0.104-1.148,0.104-1.736s-0.04-1.166-0.104-1.737l-4.377-1.557c-0.218-0.716-0.504-1.401-0.851-2.05l1.993-4.192c-0.725-0.91-1.549-1.734-2.458-2.459l-4.193,1.994c-0.647-0.347-1.334-0.632-2.049-0.849l-1.558-4.378C17.165,0.708,16.588,0.667,16,0.667s-1.166,0.041-1.737,0.105L12.707,5.15c-0.716,0.217-1.401,0.502-2.05,0.849L6.464,4.005C5.554,4.73,4.73,5.554,4.005,6.464l1.994,4.192c-0.347,0.648-0.632,1.334-0.849,2.05l-4.378,1.557C0.708,14.834,0.667,15.412,0.667,16s0.041,1.165,0.105,1.736l4.378,1.558c0.217,0.715,0.502,1.401,0.849,2.049l-1.994,4.193c0.725,0.909,1.549,1.733,2.459,2.458l4.192-1.993c0.648,0.347,1.334,0.633,2.05,0.851l1.557,4.377c0.571,0.064,1.148,0.104,1.737,0.104c0.588,0,1.165-0.04,1.736-0.104l1.558-4.377c0.715-0.218,1.399-0.504,2.049-0.851l4.193,1.993c0.909-0.725,1.733-1.549,2.458-2.458l-1.993-4.193c0.347-0.647,0.633-1.334,0.851-2.049L31.229,17.736zM16,20.871c-2.69,0-4.872-2.182-4.872-4.871c0-2.69,2.182-4.872,4.872-4.872c2.689,0,4.871,2.182,4.871,4.872C20.871,18.689,18.689,20.871,16,20.871z"></path><title>Link options.</title></g></g></g></g><g   id="j_79" ><path  stroke="#707070" d="M 1090 779 L 1197 929" id="v-930" stroke-width="2" stroke-dasharray="30 30" fill="none" style="opacity: 1;"></path><path  fill="black" stroke="black" d="M 0 0 0 0" transform="matrix(0.5812638998031616,0.8137151002883911,-0.8137151002883911,0.5812638998031616,1089.7099609375,779)"></path><path  fill="#707070" stroke="#707070" d="M 20 0 L 0 10 L 20 20 z" id="v-932" transform="matrix(-0.5812638998031616,-0.8137151002883911,0.8137151002883911,-0.5812638998031616,1188.722900390625,934.8126220703125)" style="opacity: 1;"></path><path  d="M 1090 779 L 1197 929" id="v-931" fill="none" style="cursor: auto; pointer-events: visiblepainted;"></path><g ><g id="v-924"  label-idx="0" cursor="move" transform="matrix(1,0,0,1,1143.5,854)" style="cursor: default; opacity: 1;"><rect joint-selector="rect" id="v-927" fill="#ffffff" rx="3" ry="3" stroke="#ffffff" stroke-width="20px" pointer-events="none" width="0" height="0" transform="matrix(1,0,0,1,0,0)"></rect><text joint-selector="text" id="v-926" font-size="24px" xml:space="preserve" display="none" y="0.8em" fill="#707070" text-anchor="middle" pointer-events="none" font-family="Open Sans" font-weight="normal"><tspan style="fill-opacity: 0; stroke-opacity: 0;"  dy="0">-</tspan></text></g><g id="v-925"  label-idx="1" cursor="move" transform="matrix(1,0,0,1,1133.5,864)" style="cursor: default; opacity: 1;"><rect joint-selector="rect" id="v-929" fill="#ffffff" rx="3" ry="3"  width="0" height="0" transform="matrix(1,0,0,1,0,0)" display="none"></rect><text joint-selector="text" id="v-928" fill="#000000" font-size="14" text-anchor="middle" pointer-events="none"></text></g></g><g  display="none" style="display: none;"></g><g  id="v-934" display="none"><g  id="v-922"><path  end="source" d="M 26 0 L 0 13 L 26 26 z"></path></g><g  id="v-923"><path  end="target" d="M 26 0 L 0 13 L 26 26 z"></path></g></g><g  id="v-933" display="none"><g  id="v-921" transform="translate(1113.2289872651022, 811.5640008389282) "><g  event="remove"><circle r="11"></circle><path transform="scale(.8) translate(-16, -16)" d="M24.778,21.419 19.276,15.917 24.777,10.415 21.949,7.585 16.447,13.087 10.945,7.585 8.117,10.415 13.618,15.917 8.116,21.419 10.946,24.248 16.447,18.746 21.948,24.248z"></path><title>Remove link.</title></g><g  event="link:options"><circle r="11" transform="translate(25)"></circle><path fill="white" transform="scale(.55) translate(29, -16)" d="M31.229,17.736c0.064-0.571,0.104-1.148,0.104-1.736s-0.04-1.166-0.104-1.737l-4.377-1.557c-0.218-0.716-0.504-1.401-0.851-2.05l1.993-4.192c-0.725-0.91-1.549-1.734-2.458-2.459l-4.193,1.994c-0.647-0.347-1.334-0.632-2.049-0.849l-1.558-4.378C17.165,0.708,16.588,0.667,16,0.667s-1.166,0.041-1.737,0.105L12.707,5.15c-0.716,0.217-1.401,0.502-2.05,0.849L6.464,4.005C5.554,4.73,4.73,5.554,4.005,6.464l1.994,4.192c-0.347,0.648-0.632,1.334-0.849,2.05l-4.378,1.557C0.708,14.834,0.667,15.412,0.667,16s0.041,1.165,0.105,1.736l4.378,1.558c0.217,0.715,0.502,1.401,0.849,2.049l-1.994,4.193c0.725,0.909,1.549,1.733,2.459,2.458l4.192-1.993c0.648,0.347,1.334,0.633,2.05,0.851l1.557,4.377c0.571,0.064,1.148,0.104,1.737,0.104c0.588,0,1.165-0.04,1.736-0.104l1.558-4.377c0.715-0.218,1.399-0.504,2.049-0.851l4.193,1.993c0.909-0.725,1.733-1.549,2.458-2.458l-1.993-4.193c0.347-0.647,0.633-1.334,0.851-2.049L31.229,17.736zM16,20.871c-2.69,0-4.872-2.182-4.872-4.871c0-2.69,2.182-4.872,4.872-4.872c2.689,0,4.871,2.182,4.871,4.872C20.871,18.689,18.689,20.871,16,20.871z"></path><title>Link options.</title></g></g></g></g><g   id="j_80" ><path  stroke="#707070" d="M 2804 629 L 2804 929" id="v-944" stroke-width="2" stroke-dasharray="30 30" fill="none" style="opacity: 1;"></path><path  fill="black" stroke="black" d="M 0 0 0 0" transform="matrix(6.123234262925839e-17,1,-1,6.123234262925839e-17,2804,629)"></path><path  fill="#707070" stroke="#707070" d="M 20 0 L 0 10 L 20 20 z" id="v-946" transform="matrix(-1.8369701465288538e-16,-1,1,-1.8369701465288538e-16,2794,929)" style="opacity: 1;"></path><path  d="M 2804 629 L 2804 929" id="v-945" fill="none" style="cursor: auto; pointer-events: visiblepainted;"></path><g ><g id="v-938"  label-idx="0" cursor="move" transform="matrix(1,0,0,1,2804,779)" style="cursor: default; opacity: 1;"><rect joint-selector="rect" id="v-941" fill="#ffffff" rx="3" ry="3" stroke="#ffffff" stroke-width="20px" pointer-events="none" width="0" height="0" transform="matrix(1,0,0,1,0,0)"></rect><text joint-selector="text" id="v-940" font-size="24px" xml:space="preserve" display="none" y="0.8em" fill="#707070" text-anchor="middle" pointer-events="none" font-family="Open Sans" font-weight="normal"><tspan style="fill-opacity: 0; stroke-opacity: 0;"  dy="0">-</tspan></text></g><g id="v-939"  label-idx="1" cursor="move" transform="matrix(1,0,0,1,2794,789)" style="cursor: default; opacity: 1;"><rect joint-selector="rect" id="v-943" fill="#ffffff" rx="3" ry="3"  width="0" height="0" transform="matrix(1,0,0,1,0,0)" display="none"></rect><text joint-selector="text" id="v-942" fill="#000000" font-size="14" text-anchor="middle" pointer-events="none"></text></g></g><g  display="none" style="display: none;"></g><g  id="v-948" display="none"><g  id="v-936"><path  end="source" d="M 26 0 L 0 13 L 26 26 z"></path></g><g  id="v-937"><path  end="target" d="M 26 0 L 0 13 L 26 26 z"></path></g></g><g  id="v-947" display="none"><g  id="v-935" transform="translate(2804, 669) "><g  event="remove"><circle r="11"></circle><path transform="scale(.8) translate(-16, -16)" d="M24.778,21.419 19.276,15.917 24.777,10.415 21.949,7.585 16.447,13.087 10.945,7.585 8.117,10.415 13.618,15.917 8.116,21.419 10.946,24.248 16.447,18.746 21.948,24.248z"></path><title>Remove link.</title></g><g  event="link:options"><circle r="11" transform="translate(25)"></circle><path fill="white" transform="scale(.55) translate(29, -16)" d="M31.229,17.736c0.064-0.571,0.104-1.148,0.104-1.736s-0.04-1.166-0.104-1.737l-4.377-1.557c-0.218-0.716-0.504-1.401-0.851-2.05l1.993-4.192c-0.725-0.91-1.549-1.734-2.458-2.459l-4.193,1.994c-0.647-0.347-1.334-0.632-2.049-0.849l-1.558-4.378C17.165,0.708,16.588,0.667,16,0.667s-1.166,0.041-1.737,0.105L12.707,5.15c-0.716,0.217-1.401,0.502-2.05,0.849L6.464,4.005C5.554,4.73,4.73,5.554,4.005,6.464l1.994,4.192c-0.347,0.648-0.632,1.334-0.849,2.05l-4.378,1.557C0.708,14.834,0.667,15.412,0.667,16s0.041,1.165,0.105,1.736l4.378,1.558c0.217,0.715,0.502,1.401,0.849,2.049l-1.994,4.193c0.725,0.909,1.549,1.733,2.459,2.458l4.192-1.993c0.648,0.347,1.334,0.633,2.05,0.851l1.557,4.377c0.571,0.064,1.148,0.104,1.737,0.104c0.588,0,1.165-0.04,1.736-0.104l1.558-4.377c0.715-0.218,1.399-0.504,2.049-0.851l4.193,1.993c0.909-0.725,1.733-1.549,2.458-2.458l-1.993-4.193c0.347-0.647,0.633-1.334,0.851-2.049L31.229,17.736zM16,20.871c-2.69,0-4.872-2.182-4.872-4.871c0-2.69,2.182-4.872,4.872-4.872c2.689,0,4.871,2.182,4.871,4.872C20.871,18.689,18.689,20.871,16,20.871z"></path><title>Link options.</title></g></g></g></g><g   id="j_81" ><path  stroke="#707070" d="M 2992 629 L 3367 929" id="v-958" stroke-width="2" stroke-dasharray="30 30" fill="none" style="opacity: 1;"></path><path  fill="black" stroke="black" d="M 0 0 0 0" transform="matrix(0.7808688282966614,0.6246950626373291,-0.6246950626373291,0.7808688282966614,2991.5,629)"></path><path  fill="#707070" stroke="#707070" d="M 20 0 L 0 10 L 20 20 z" id="v-960" transform="matrix(-0.7808688282966614,-0.6246950030326843,0.6246950030326843,-0.7808688282966614,3360.253173828125,936.8087158203125)" style="opacity: 1;"></path><path  d="M 2992 629 L 3367 929" id="v-959" fill="none" style="cursor: auto; pointer-events: visiblepainted;"></path><g ><g id="v-952"  label-idx="0" cursor="move" transform="matrix(1,0,0,1,3179.5,779)" style="cursor: default; opacity: 1;"><rect joint-selector="rect" id="v-955" fill="#ffffff" rx="3" ry="3" stroke="#ffffff" stroke-width="20px" pointer-events="none" width="0" height="0" transform="matrix(1,0,0,1,0,0)"></rect><text joint-selector="text" id="v-954" font-size="24px" xml:space="preserve" display="none" y="0.8em" fill="#707070" text-anchor="middle" pointer-events="none" font-family="Open Sans" font-weight="normal"><tspan style="fill-opacity: 0; stroke-opacity: 0;"  dy="0">-</tspan></text></g><g id="v-953"  label-idx="1" cursor="move" transform="matrix(1,0,0,1,3169.5,789)" style="cursor: default; opacity: 1;"><rect joint-selector="rect" id="v-957" fill="#ffffff" rx="3" ry="3"  width="0" height="0" transform="matrix(1,0,0,1,0,0)" display="none"></rect><text joint-selector="text" id="v-956" fill="#000000" font-size="14" text-anchor="middle" pointer-events="none"></text></g></g><g  display="none" style="display: none;"></g><g  id="v-962" display="none"><g  id="v-950"><path  end="source" d="M 26 0 L 0 13 L 26 26 z"></path></g><g  id="v-951"><path  end="target" d="M 26 0 L 0 13 L 26 26 z"></path></g></g><g  id="v-961" display="none"><g  id="v-949" transform="translate(3023.234752377721, 653.987801902177) "><g  event="remove"><circle r="11"></circle><path transform="scale(.8) translate(-16, -16)" d="M24.778,21.419 19.276,15.917 24.777,10.415 21.949,7.585 16.447,13.087 10.945,7.585 8.117,10.415 13.618,15.917 8.116,21.419 10.946,24.248 16.447,18.746 21.948,24.248z"></path><title>Remove link.</title></g><g  event="link:options"><circle r="11" transform="translate(25)"></circle><path fill="white" transform="scale(.55) translate(29, -16)" d="M31.229,17.736c0.064-0.571,0.104-1.148,0.104-1.736s-0.04-1.166-0.104-1.737l-4.377-1.557c-0.218-0.716-0.504-1.401-0.851-2.05l1.993-4.192c-0.725-0.91-1.549-1.734-2.458-2.459l-4.193,1.994c-0.647-0.347-1.334-0.632-2.049-0.849l-1.558-4.378C17.165,0.708,16.588,0.667,16,0.667s-1.166,0.041-1.737,0.105L12.707,5.15c-0.716,0.217-1.401,0.502-2.05,0.849L6.464,4.005C5.554,4.73,4.73,5.554,4.005,6.464l1.994,4.192c-0.347,0.648-0.632,1.334-0.849,2.05l-4.378,1.557C0.708,14.834,0.667,15.412,0.667,16s0.041,1.165,0.105,1.736l4.378,1.558c0.217,0.715,0.502,1.401,0.849,2.049l-1.994,4.193c0.725,0.909,1.549,1.733,2.459,2.458l4.192-1.993c0.648,0.347,1.334,0.633,2.05,0.851l1.557,4.377c0.571,0.064,1.148,0.104,1.737,0.104c0.588,0,1.165-0.04,1.736-0.104l1.558-4.377c0.715-0.218,1.399-0.504,2.049-0.851l4.193,1.993c0.909-0.725,1.733-1.549,2.458-2.458l-1.993-4.193c0.347-0.647,0.633-1.334,0.851-2.049L31.229,17.736zM16,20.871c-2.69,0-4.872-2.182-4.872-4.871c0-2.69,2.182-4.872,4.872-4.872c2.689,0,4.871,2.182,4.871,4.872C20.871,18.689,18.689,20.871,16,20.871z"></path><title>Link options.</title></g></g></g></g><g   id="j_82" ><path  stroke="#707070" d="M 2617 629 L 2242 929" id="v-972" stroke-width="2" stroke-dasharray="30 30" fill="none" style="opacity: 1;"></path><path  fill="black" stroke="black" d="M 0 0 0 0" transform="matrix(-0.7808688282966614,0.6246950030326843,-0.6246950030326843,-0.7808688282966614,2616.5,629)"></path><path  fill="#707070" stroke="#707070" d="M 20 0 L 0 10 L 20 20 z" id="v-974" transform="matrix(0.780868649482727,-0.6246952414512634,0.6246952414512634,0.780868649482727,2235.2529296875,921.1913452148438)" style="opacity: 1;"></path><path  d="M 2617 629 L 2242 929" id="v-973" fill="none" style="cursor: auto; pointer-events: visiblepainted;"></path><g ><g id="v-966"  label-idx="0" cursor="move" transform="matrix(1,0,0,1,2429.5,779)" style="cursor: default; opacity: 1;"><rect joint-selector="rect" id="v-969" fill="#ffffff" rx="3" ry="3" stroke="#ffffff" stroke-width="20px" pointer-events="none" width="0" height="0" transform="matrix(1,0,0,1,0,0)"></rect><text joint-selector="text" id="v-968" font-size="24px" xml:space="preserve" display="none" y="0.8em" fill="#707070" text-anchor="middle" pointer-events="none" font-family="Open Sans" font-weight="normal"><tspan style="fill-opacity: 0; stroke-opacity: 0;"  dy="0">-</tspan></text></g><g id="v-967"  label-idx="1" cursor="move" transform="matrix(1,0,0,1,2419.5,789)" style="cursor: default; opacity: 1;"><rect joint-selector="rect" id="v-971" fill="#ffffff" rx="3" ry="3"  width="0" height="0" transform="matrix(1,0,0,1,0,0)" display="none"></rect><text joint-selector="text" id="v-970" fill="#000000" font-size="14" text-anchor="middle" pointer-events="none"></text></g></g><g  display="none" style="display: none;"></g><g  id="v-976" display="none"><g  id="v-964"><path  end="source" d="M 26 0 L 0 13 L 26 26 z"></path></g><g  id="v-965"><path  end="target" d="M 26 0 L 0 13 L 26 26 z"></path></g></g><g  id="v-975" display="none"><g  id="v-963" transform="translate(2585.765247622279, 653.987801902177) "><g  event="remove"><circle r="11"></circle><path transform="scale(.8) translate(-16, -16)" d="M24.778,21.419 19.276,15.917 24.777,10.415 21.949,7.585 16.447,13.087 10.945,7.585 8.117,10.415 13.618,15.917 8.116,21.419 10.946,24.248 16.447,18.746 21.948,24.248z"></path><title>Remove link.</title></g><g  event="link:options"><circle r="11" transform="translate(25)"></circle><path fill="white" transform="scale(.55) translate(29, -16)" d="M31.229,17.736c0.064-0.571,0.104-1.148,0.104-1.736s-0.04-1.166-0.104-1.737l-4.377-1.557c-0.218-0.716-0.504-1.401-0.851-2.05l1.993-4.192c-0.725-0.91-1.549-1.734-2.458-2.459l-4.193,1.994c-0.647-0.347-1.334-0.632-2.049-0.849l-1.558-4.378C17.165,0.708,16.588,0.667,16,0.667s-1.166,0.041-1.737,0.105L12.707,5.15c-0.716,0.217-1.401,0.502-2.05,0.849L6.464,4.005C5.554,4.73,4.73,5.554,4.005,6.464l1.994,4.192c-0.347,0.648-0.632,1.334-0.849,2.05l-4.378,1.557C0.708,14.834,0.667,15.412,0.667,16s0.041,1.165,0.105,1.736l4.378,1.558c0.217,0.715,0.502,1.401,0.849,2.049l-1.994,4.193c0.725,0.909,1.549,1.733,2.459,2.458l4.192-1.993c0.648,0.347,1.334,0.633,2.05,0.851l1.557,4.377c0.571,0.064,1.148,0.104,1.737,0.104c0.588,0,1.165-0.04,1.736-0.104l1.558-4.377c0.715-0.218,1.399-0.504,2.049-0.851l4.193,1.993c0.909-0.725,1.733-1.549,2.458-2.458l-1.993-4.193c0.347-0.647,0.633-1.334,0.851-2.049L31.229,17.736zM16,20.871c-2.69,0-4.872-2.182-4.872-4.871c0-2.69,2.182-4.872,4.872-4.872c2.689,0,4.871,2.182,4.871,4.872C20.871,18.689,18.689,20.871,16,20.871z"></path><title>Link options.</title></g></g></g></g><g   id="j_83" ><path  stroke="#707070" d="M 3329 1170 L 2291 1588" id="v-986" stroke-width="2" stroke-dasharray="30 30" fill="none" style="opacity: 1;"></path><path  fill="black" stroke="black" d="M 0 0 0 0" transform="matrix(-0.9274441003799438,0.37396177649497986,-0.37396177649497986,-0.9274441003799438,3329,1169.72998046875)"></path><path  fill="#707070" stroke="#707070" d="M 20 0 L 0 10 L 20 20 z" id="v-988" transform="matrix(0.9274440407752991,-0.37396204471588135,0.37396204471588135,0.9274440407752991,2287.26025390625,1578.99560546875)" style="opacity: 1;"></path><path  d="M 3329 1170 L 2291 1588" id="v-987" fill="none" style="cursor: auto; pointer-events: visiblepainted;"></path><g ><g id="v-980"  label-idx="0" cursor="move" transform="matrix(1,0,0,1,2810,1379)" style="cursor: default; opacity: 1;"><rect joint-selector="rect" id="v-983" fill="#ffffff" rx="3" ry="3" stroke="#ffffff" stroke-width="20px" pointer-events="none" width="0" height="0" transform="matrix(1,0,0,1,0,0)"></rect><text joint-selector="text" id="v-982" font-size="24px" xml:space="preserve" display="none" y="0.8em" fill="#707070" text-anchor="middle" pointer-events="none" font-family="Open Sans" font-weight="normal"><tspan style="fill-opacity: 0; stroke-opacity: 0;"  dy="0">-</tspan></text></g><g id="v-981"  label-idx="1" cursor="move" transform="matrix(1,0,0,1,2800,1389)" style="cursor: default; opacity: 1;"><rect joint-selector="rect" id="v-985" fill="#ffffff" rx="3" ry="3"  width="0" height="0" transform="matrix(1,0,0,1,0,0)" display="none"></rect><text joint-selector="text" id="v-984" fill="#000000" font-size="14" text-anchor="middle" pointer-events="none"></text></g></g><g  display="none" style="display: none;"></g><g  id="v-990" display="none"><g  id="v-978"><path  end="source" d="M 26 0 L 0 13 L 26 26 z"></path></g><g  id="v-979"><path  end="target" d="M 26 0 L 0 13 L 26 26 z"></path></g></g><g  id="v-989" display="none"><g  id="v-977" transform="translate(3291.8955460722764, 1184.9418706568292) "><g  event="remove"><circle r="11"></circle><path transform="scale(.8) translate(-16, -16)" d="M24.778,21.419 19.276,15.917 24.777,10.415 21.949,7.585 16.447,13.087 10.945,7.585 8.117,10.415 13.618,15.917 8.116,21.419 10.946,24.248 16.447,18.746 21.948,24.248z"></path><title>Remove link.</title></g><g  event="link:options"><circle r="11" transform="translate(25)"></circle><path fill="white" transform="scale(.55) translate(29, -16)" d="M31.229,17.736c0.064-0.571,0.104-1.148,0.104-1.736s-0.04-1.166-0.104-1.737l-4.377-1.557c-0.218-0.716-0.504-1.401-0.851-2.05l1.993-4.192c-0.725-0.91-1.549-1.734-2.458-2.459l-4.193,1.994c-0.647-0.347-1.334-0.632-2.049-0.849l-1.558-4.378C17.165,0.708,16.588,0.667,16,0.667s-1.166,0.041-1.737,0.105L12.707,5.15c-0.716,0.217-1.401,0.502-2.05,0.849L6.464,4.005C5.554,4.73,4.73,5.554,4.005,6.464l1.994,4.192c-0.347,0.648-0.632,1.334-0.849,2.05l-4.378,1.557C0.708,14.834,0.667,15.412,0.667,16s0.041,1.165,0.105,1.736l4.378,1.558c0.217,0.715,0.502,1.401,0.849,2.049l-1.994,4.193c0.725,0.909,1.549,1.733,2.459,2.458l4.192-1.993c0.648,0.347,1.334,0.633,2.05,0.851l1.557,4.377c0.571,0.064,1.148,0.104,1.737,0.104c0.588,0,1.165-0.04,1.736-0.104l1.558-4.377c0.715-0.218,1.399-0.504,2.049-0.851l4.193,1.993c0.909-0.725,1.733-1.549,2.458-2.458l-1.993-4.193c0.347-0.647,0.633-1.334,0.851-2.049L31.229,17.736zM16,20.871c-2.69,0-4.872-2.182-4.872-4.871c0-2.69,2.182-4.872,4.872-4.872c2.689,0,4.871,2.182,4.871,4.872C20.871,18.689,18.689,20.871,16,20.871z"></path><title>Link options.</title></g></g></g></g><g   id="j_84" ><path  stroke="#707070" d="M 2057 1229 L 2063 1529" id="v-1000" stroke-width="2" stroke-dasharray="30 30" fill="none" style="opacity: 1;"></path><path  fill="black" stroke="black" d="M 0 0 0 0" transform="matrix(0.01999594457447529,0.9998000860214233,-0.9998000860214233,0.01999594457447529,2057,1229)"></path><path  fill="#707070" stroke="#707070" d="M 20 0 L 0 10 L 20 20 z" id="v-1002" transform="matrix(-0.019995810464024544,-0.9998000860214233,0.9998000860214233,-0.019995810464024544,2053.001953125,1529.199951171875)" style="opacity: 1;"></path><path  d="M 2057 1229 L 2063 1529" id="v-1001" fill="none" style="cursor: auto; pointer-events: visiblepainted;"></path><g ><g id="v-994"  label-idx="0" cursor="move" transform="matrix(1,0,0,1,2060,1379)" style="cursor: default; opacity: 1;"><rect joint-selector="rect" id="v-997" fill="#ffffff" rx="3" ry="3" stroke="#ffffff" stroke-width="20px" pointer-events="none" width="0" height="0" transform="matrix(1,0,0,1,0,0)"></rect><text joint-selector="text" id="v-996" font-size="24px" xml:space="preserve" display="none" y="0.8em" fill="#707070" text-anchor="middle" pointer-events="none" font-family="Open Sans" font-weight="normal"><tspan style="fill-opacity: 0; stroke-opacity: 0;"  dy="0">-</tspan></text></g><g id="v-995"  label-idx="1" cursor="move" transform="matrix(1,0,0,1,2050,1389)" style="cursor: default; opacity: 1;"><rect joint-selector="rect" id="v-999" fill="#ffffff" rx="3" ry="3"  width="0" height="0" transform="matrix(1,0,0,1,0,0)" display="none"></rect><text joint-selector="text" id="v-998" fill="#000000" font-size="14" text-anchor="middle" pointer-events="none"></text></g></g><g  display="none" style="display: none;"></g><g  id="v-1004" display="none"><g  id="v-992"><path  end="source" d="M 26 0 L 0 13 L 26 26 z"></path></g><g  id="v-993"><path  end="target" d="M 26 0 L 0 13 L 26 26 z"></path></g></g><g  id="v-1003" display="none"><g  id="v-991" transform="translate(2057.799840047984, 1268.9920023992004) "><g  event="remove"><circle r="11"></circle><path transform="scale(.8) translate(-16, -16)" d="M24.778,21.419 19.276,15.917 24.777,10.415 21.949,7.585 16.447,13.087 10.945,7.585 8.117,10.415 13.618,15.917 8.116,21.419 10.946,24.248 16.447,18.746 21.948,24.248z"></path><title>Remove link.</title></g><g  event="link:options"><circle r="11" transform="translate(25)"></circle><path fill="white" transform="scale(.55) translate(29, -16)" d="M31.229,17.736c0.064-0.571,0.104-1.148,0.104-1.736s-0.04-1.166-0.104-1.737l-4.377-1.557c-0.218-0.716-0.504-1.401-0.851-2.05l1.993-4.192c-0.725-0.91-1.549-1.734-2.458-2.459l-4.193,1.994c-0.647-0.347-1.334-0.632-2.049-0.849l-1.558-4.378C17.165,0.708,16.588,0.667,16,0.667s-1.166,0.041-1.737,0.105L12.707,5.15c-0.716,0.217-1.401,0.502-2.05,0.849L6.464,4.005C5.554,4.73,4.73,5.554,4.005,6.464l1.994,4.192c-0.347,0.648-0.632,1.334-0.849,2.05l-4.378,1.557C0.708,14.834,0.667,15.412,0.667,16s0.041,1.165,0.105,1.736l4.378,1.558c0.217,0.715,0.502,1.401,0.849,2.049l-1.994,4.193c0.725,0.909,1.549,1.733,2.459,2.458l4.192-1.993c0.648,0.347,1.334,0.633,2.05,0.851l1.557,4.377c0.571,0.064,1.148,0.104,1.737,0.104c0.588,0,1.165-0.04,1.736-0.104l1.558-4.377c0.715-0.218,1.399-0.504,2.049-0.851l4.193,1.993c0.909-0.725,1.733-1.549,2.458-2.458l-1.993-4.193c0.347-0.647,0.633-1.334,0.851-2.049L31.229,17.736zM16,20.871c-2.69,0-4.872-2.182-4.872-4.871c0-2.69,2.182-4.872,4.872-4.872c2.689,0,4.871,2.182,4.871,4.872C20.871,18.689,18.689,20.871,16,20.871z"></path><title>Link options.</title></g></g></g></g><g   id="j_85" ><path  stroke="#707070" d="M 743 1229 L 1120 1529" id="v-1014" stroke-width="2" stroke-dasharray="30 30" fill="none" style="opacity: 1;"></path><path  fill="black" stroke="black" d="M 0 0 0 0" transform="matrix(0.7824861407279968,0.6226680278778076,-0.6226680278778076,0.7824861407279968,742.5,1229)"></path><path  fill="#707070" stroke="#707070" d="M 20 0 L 0 10 L 20 20 z" id="v-1016" transform="matrix(-0.7824861407279968,-0.6226680278778076,0.6226680278778076,-0.7824861407279968,1113.2733154296875,1536.8248291015625)" style="opacity: 1;"></path><path  d="M 743 1229 L 1120 1529" id="v-1015" fill="none" style="cursor: auto; pointer-events: visiblepainted;"></path><g ><g id="v-1008"  label-idx="0" cursor="move" transform="matrix(1,0,0,1,931.5,1379)" style="cursor: default; opacity: 1;"><rect joint-selector="rect" id="v-1011" fill="#ffffff" rx="3" ry="3" stroke="#ffffff" stroke-width="20px" pointer-events="none" width="0" height="0" transform="matrix(1,0,0,1,0,0)"></rect><text joint-selector="text" id="v-1010" font-size="24px" xml:space="preserve" display="none" y="0.8em" fill="#707070" text-anchor="middle" pointer-events="none" font-family="Open Sans" font-weight="normal"><tspan style="fill-opacity: 0; stroke-opacity: 0;"  dy="0">-</tspan></text></g><g id="v-1009"  label-idx="1" cursor="move" transform="matrix(1,0,0,1,921.5,1389)" style="cursor: default; opacity: 1;"><rect joint-selector="rect" id="v-1013" fill="#ffffff" rx="3" ry="3"  width="0" height="0" transform="matrix(1,0,0,1,0,0)" display="none"></rect><text joint-selector="text" id="v-1012" fill="#000000" font-size="14" text-anchor="middle" pointer-events="none"></text></g></g><g  display="none" style="display: none;"></g><g  id="v-1018" display="none"><g  id="v-1006"><path  end="source" d="M 26 0 L 0 13 L 26 26 z"></path></g><g  id="v-1007"><path  end="target" d="M 26 0 L 0 13 L 26 26 z"></path></g></g><g  id="v-1017" display="none"><g  id="v-1005" transform="translate(774.2994453287, 1253.9067204207163) "><g  event="remove"><circle r="11"></circle><path transform="scale(.8) translate(-16, -16)" d="M24.778,21.419 19.276,15.917 24.777,10.415 21.949,7.585 16.447,13.087 10.945,7.585 8.117,10.415 13.618,15.917 8.116,21.419 10.946,24.248 16.447,18.746 21.948,24.248z"></path><title>Remove link.</title></g><g  event="link:options"><circle r="11" transform="translate(25)"></circle><path fill="white" transform="scale(.55) translate(29, -16)" d="M31.229,17.736c0.064-0.571,0.104-1.148,0.104-1.736s-0.04-1.166-0.104-1.737l-4.377-1.557c-0.218-0.716-0.504-1.401-0.851-2.05l1.993-4.192c-0.725-0.91-1.549-1.734-2.458-2.459l-4.193,1.994c-0.647-0.347-1.334-0.632-2.049-0.849l-1.558-4.378C17.165,0.708,16.588,0.667,16,0.667s-1.166,0.041-1.737,0.105L12.707,5.15c-0.716,0.217-1.401,0.502-2.05,0.849L6.464,4.005C5.554,4.73,4.73,5.554,4.005,6.464l1.994,4.192c-0.347,0.648-0.632,1.334-0.849,2.05l-4.378,1.557C0.708,14.834,0.667,15.412,0.667,16s0.041,1.165,0.105,1.736l4.378,1.558c0.217,0.715,0.502,1.401,0.849,2.049l-1.994,4.193c0.725,0.909,1.549,1.733,2.459,2.458l4.192-1.993c0.648,0.347,1.334,0.633,2.05,0.851l1.557,4.377c0.571,0.064,1.148,0.104,1.737,0.104c0.588,0,1.165-0.04,1.736-0.104l1.558-4.377c0.715-0.218,1.399-0.504,2.049-0.851l4.193,1.993c0.909-0.725,1.733-1.549,2.458-2.458l-1.993-4.193c0.347-0.647,0.633-1.334,0.851-2.049L31.229,17.736zM16,20.871c-2.69,0-4.872-2.182-4.872-4.871c0-2.69,2.182-4.872,4.872-4.872c2.689,0,4.871,2.182,4.871,4.872C20.871,18.689,18.689,20.871,16,20.871z"></path><title>Link options.</title></g></g></g></g><g   id="j_86" ><path  stroke="#707070" d="M 1305 1229 L 1307 1529" id="v-1028" stroke-width="2" stroke-dasharray="30 30" fill="none" style="opacity: 1;"></path><path  fill="black" stroke="black" d="M 0 0 0 0" transform="matrix(0.006666508503258228,0.9999777674674988,-0.9999777674674988,0.006666508503258228,1305,1229)"></path><path  fill="#707070" stroke="#707070" d="M 20 0 L 0 10 L 20 20 z" id="v-1030" transform="matrix(-0.006666375324130058,-0.9999777674674988,0.9999777674674988,-0.006666375324130058,1297.000244140625,1529.066650390625)" style="opacity: 1;"></path><path  d="M 1305 1229 L 1307 1529" id="v-1029" fill="none" style="cursor: auto; pointer-events: visiblepainted;"></path><g ><g id="v-1022"  label-idx="0" cursor="move" transform="matrix(1,0,0,1,1306,1379)" style="cursor: default; opacity: 1;"><rect joint-selector="rect" id="v-1025" fill="#ffffff" rx="3" ry="3" stroke="#ffffff" stroke-width="20px" pointer-events="none" width="0" height="0" transform="matrix(1,0,0,1,0,0)"></rect><text joint-selector="text" id="v-1024" font-size="24px" xml:space="preserve" display="none" y="0.8em" fill="#707070" text-anchor="middle" pointer-events="none" font-family="Open Sans" font-weight="normal"><tspan style="fill-opacity: 0; stroke-opacity: 0;"  dy="0">-</tspan></text></g><g id="v-1023"  label-idx="1" cursor="move" transform="matrix(1,0,0,1,1296,1389)" style="cursor: default; opacity: 1;"><rect joint-selector="rect" id="v-1027" fill="#ffffff" rx="3" ry="3"  width="0" height="0" transform="matrix(1,0,0,1,0,0)" display="none"></rect><text joint-selector="text" id="v-1026" fill="#000000" font-size="14" text-anchor="middle" pointer-events="none"></text></g></g><g  display="none" style="display: none;"></g><g  id="v-1032" display="none"><g  id="v-1020"><path  end="source" d="M 26 0 L 0 13 L 26 26 z"></path></g><g  id="v-1021"><path  end="target" d="M 26 0 L 0 13 L 26 26 z"></path></g></g><g  id="v-1031" display="none"><g  id="v-1019" transform="translate(1305.266660740938, 1268.9991111407396) "><g  event="remove"><circle r="11"></circle><path transform="scale(.8) translate(-16, -16)" d="M24.778,21.419 19.276,15.917 24.777,10.415 21.949,7.585 16.447,13.087 10.945,7.585 8.117,10.415 13.618,15.917 8.116,21.419 10.946,24.248 16.447,18.746 21.948,24.248z"></path><title>Remove link.</title></g><g  event="link:options"><circle r="11" transform="translate(25)"></circle><path fill="white" transform="scale(.55) translate(29, -16)" d="M31.229,17.736c0.064-0.571,0.104-1.148,0.104-1.736s-0.04-1.166-0.104-1.737l-4.377-1.557c-0.218-0.716-0.504-1.401-0.851-2.05l1.993-4.192c-0.725-0.91-1.549-1.734-2.458-2.459l-4.193,1.994c-0.647-0.347-1.334-0.632-2.049-0.849l-1.558-4.378C17.165,0.708,16.588,0.667,16,0.667s-1.166,0.041-1.737,0.105L12.707,5.15c-0.716,0.217-1.401,0.502-2.05,0.849L6.464,4.005C5.554,4.73,4.73,5.554,4.005,6.464l1.994,4.192c-0.347,0.648-0.632,1.334-0.849,2.05l-4.378,1.557C0.708,14.834,0.667,15.412,0.667,16s0.041,1.165,0.105,1.736l4.378,1.558c0.217,0.715,0.502,1.401,0.849,2.049l-1.994,4.193c0.725,0.909,1.549,1.733,2.459,2.458l4.192-1.993c0.648,0.347,1.334,0.633,2.05,0.851l1.557,4.377c0.571,0.064,1.148,0.104,1.737,0.104c0.588,0,1.165-0.04,1.736-0.104l1.558-4.377c0.715-0.218,1.399-0.504,2.049-0.851l4.193,1.993c0.909-0.725,1.733-1.549,2.458-2.458l-1.993-4.193c0.347-0.647,0.633-1.334,0.851-2.049L31.229,17.736zM16,20.871c-2.69,0-4.872-2.182-4.872-4.871c0-2.69,2.182-4.872,4.872-4.872c2.689,0,4.871,2.182,4.871,4.872C20.871,18.689,18.689,20.871,16,20.871z"></path><title>Link options.</title></g></g></g></g><g   id="j_87" ><path  stroke="#707070" d="M 768 779 L 661 929" id="v-1042" stroke-width="2" stroke-dasharray="30 30" fill="none" style="opacity: 1;"></path><path  fill="black" stroke="black" d="M 0 0 0 0" transform="matrix(-0.5812638401985168,0.8137151598930359,-0.8137151598930359,-0.5812638401985168,768.2899780273438,779)"></path><path  fill="#707070" stroke="#707070" d="M 20 0 L 0 10 L 20 20 z" id="v-1044" transform="matrix(0.5812638998031616,-0.8137151002883911,0.8137151002883911,0.5812638998031616,653.0028686523438,923.1873779296875)" style="opacity: 1;"></path><path  d="M 768 779 L 661 929" id="v-1043" fill="none" style="cursor: auto; pointer-events: visiblepainted;"></path><g ><g id="v-1036"  label-idx="0" cursor="move" transform="matrix(1,0,0,1,714.5,854)" style="cursor: default; opacity: 1;"><rect joint-selector="rect" id="v-1039" fill="#ffffff" rx="3" ry="3" stroke="#ffffff" stroke-width="20px" pointer-events="none" width="0" height="0" transform="matrix(1,0,0,1,0,0)"></rect><text joint-selector="text" id="v-1038" font-size="24px" xml:space="preserve" display="none" y="0.8em" fill="#707070" text-anchor="middle" pointer-events="none" font-family="Open Sans" font-weight="normal"><tspan style="fill-opacity: 0; stroke-opacity: 0;"  dy="0">-</tspan></text></g><g id="v-1037"  label-idx="1" cursor="move" transform="matrix(1,0,0,1,704.5,864)" style="cursor: default; opacity: 1;"><rect joint-selector="rect" id="v-1041" fill="#ffffff" rx="3" ry="3"  width="0" height="0" transform="matrix(1,0,0,1,0,0)" display="none"></rect><text joint-selector="text" id="v-1040" fill="#000000" font-size="14" text-anchor="middle" pointer-events="none"></text></g></g><g  display="none" style="display: none;"></g><g  id="v-1046" display="none"><g  id="v-1034"><path  end="source" d="M 26 0 L 0 13 L 26 26 z"></path></g><g  id="v-1035"><path  end="target" d="M 26 0 L 0 13 L 26 26 z"></path></g></g><g  id="v-1045" display="none"><g  id="v-1033" transform="translate(744.7710127348979, 811.5640008389282) "><g  event="remove"><circle r="11"></circle><path transform="scale(.8) translate(-16, -16)" d="M24.778,21.419 19.276,15.917 24.777,10.415 21.949,7.585 16.447,13.087 10.945,7.585 8.117,10.415 13.618,15.917 8.116,21.419 10.946,24.248 16.447,18.746 21.948,24.248z"></path><title>Remove link.</title></g><g  event="link:options"><circle r="11" transform="translate(25)"></circle><path fill="white" transform="scale(.55) translate(29, -16)" d="M31.229,17.736c0.064-0.571,0.104-1.148,0.104-1.736s-0.04-1.166-0.104-1.737l-4.377-1.557c-0.218-0.716-0.504-1.401-0.851-2.05l1.993-4.192c-0.725-0.91-1.549-1.734-2.458-2.459l-4.193,1.994c-0.647-0.347-1.334-0.632-2.049-0.849l-1.558-4.378C17.165,0.708,16.588,0.667,16,0.667s-1.166,0.041-1.737,0.105L12.707,5.15c-0.716,0.217-1.401,0.502-2.05,0.849L6.464,4.005C5.554,4.73,4.73,5.554,4.005,6.464l1.994,4.192c-0.347,0.648-0.632,1.334-0.849,2.05l-4.378,1.557C0.708,14.834,0.667,15.412,0.667,16s0.041,1.165,0.105,1.736l4.378,1.558c0.217,0.715,0.502,1.401,0.849,2.049l-1.994,4.193c0.725,0.909,1.549,1.733,2.459,2.458l4.192-1.993c0.648,0.347,1.334,0.633,2.05,0.851l1.557,4.377c0.571,0.064,1.148,0.104,1.737,0.104c0.588,0,1.165-0.04,1.736-0.104l1.558-4.377c0.715-0.218,1.399-0.504,2.049-0.851l4.193,1.993c0.909-0.725,1.733-1.549,2.458-2.458l-1.993-4.193c0.347-0.647,0.633-1.334,0.851-2.049L31.229,17.736zM16,20.871c-2.69,0-4.872-2.182-4.872-4.871c0-2.69,2.182-4.872,4.872-4.872c2.689,0,4.871,2.182,4.871,4.872C20.871,18.689,18.689,20.871,16,20.871z"></path><title>Link options.</title></g></g></g></g><g   id="j_88" ><path  stroke="#707070" d="M 4147 1229 L 3832 1529" id="v-1056" stroke-width="2" stroke-dasharray="30 30" fill="none" style="opacity: 1;"></path><path  fill="black" stroke="black" d="M 0 0 0 0" transform="matrix(-0.723590612411499,0.6902294158935547,-0.6902294158935547,-0.723590612411499,4146.75,1229)"></path><path  fill="#707070" stroke="#707070" d="M 20 0 L 0 10 L 20 20 z" id="v-1058" transform="matrix(0.7235904335975647,-0.690229594707489,0.690229594707489,0.7235904335975647,3825.34765625,1521.7640380859375)" style="opacity: 1;"></path><path  d="M 4147 1229 L 3832 1529" id="v-1057" fill="none" style="cursor: auto; pointer-events: visiblepainted;"></path><g ><g id="v-1050"  label-idx="0" cursor="move" transform="matrix(1,0,0,1,3989.5,1379)" style="cursor: default; opacity: 1;"><rect joint-selector="rect" id="v-1053" fill="#ffffff" rx="3" ry="3" stroke="#ffffff" stroke-width="20px" pointer-events="none" width="0" height="0" transform="matrix(1,0,0,1,0,0)"></rect><text joint-selector="text" id="v-1052" font-size="24px" xml:space="preserve" display="none" y="0.8em" fill="#707070" text-anchor="middle" pointer-events="none" font-family="Open Sans" font-weight="normal"><tspan style="fill-opacity: 0; stroke-opacity: 0;"  dy="0">-</tspan></text></g><g id="v-1051"  label-idx="1" cursor="move" transform="matrix(1,0,0,1,3979.5,1389)" style="cursor: default; opacity: 1;"><rect joint-selector="rect" id="v-1055" fill="#ffffff" rx="3" ry="3"  width="0" height="0" transform="matrix(1,0,0,1,0,0)" display="none"></rect><text joint-selector="text" id="v-1054" fill="#000000" font-size="14" text-anchor="middle" pointer-events="none"></text></g></g><g  display="none" style="display: none;"></g><g  id="v-1060" display="none"><g  id="v-1048"><path  end="source" d="M 26 0 L 0 13 L 26 26 z"></path></g><g  id="v-1049"><path  end="target" d="M 26 0 L 0 13 L 26 26 z"></path></g></g><g  id="v-1059" display="none"><g  id="v-1047" transform="translate(4118.0344827586205, 1256.5862068965519) "><g  event="remove"><circle r="11"></circle><path transform="scale(.8) translate(-16, -16)" d="M24.778,21.419 19.276,15.917 24.777,10.415 21.949,7.585 16.447,13.087 10.945,7.585 8.117,10.415 13.618,15.917 8.116,21.419 10.946,24.248 16.447,18.746 21.948,24.248z"></path><title>Remove link.</title></g><g  event="link:options"><circle r="11" transform="translate(25)"></circle><path fill="white" transform="scale(.55) translate(29, -16)" d="M31.229,17.736c0.064-0.571,0.104-1.148,0.104-1.736s-0.04-1.166-0.104-1.737l-4.377-1.557c-0.218-0.716-0.504-1.401-0.851-2.05l1.993-4.192c-0.725-0.91-1.549-1.734-2.458-2.459l-4.193,1.994c-0.647-0.347-1.334-0.632-2.049-0.849l-1.558-4.378C17.165,0.708,16.588,0.667,16,0.667s-1.166,0.041-1.737,0.105L12.707,5.15c-0.716,0.217-1.401,0.502-2.05,0.849L6.464,4.005C5.554,4.73,4.73,5.554,4.005,6.464l1.994,4.192c-0.347,0.648-0.632,1.334-0.849,2.05l-4.378,1.557C0.708,14.834,0.667,15.412,0.667,16s0.041,1.165,0.105,1.736l4.378,1.558c0.217,0.715,0.502,1.401,0.849,2.049l-1.994,4.193c0.725,0.909,1.549,1.733,2.459,2.458l4.192-1.993c0.648,0.347,1.334,0.633,2.05,0.851l1.557,4.377c0.571,0.064,1.148,0.104,1.737,0.104c0.588,0,1.165-0.04,1.736-0.104l1.558-4.377c0.715-0.218,1.399-0.504,2.049-0.851l4.193,1.993c0.909-0.725,1.733-1.549,2.458-2.458l-1.993-4.193c0.347-0.647,0.633-1.334,0.851-2.049L31.229,17.736zM16,20.871c-2.69,0-4.872-2.182-4.872-4.871c0-2.69,2.182-4.872,4.872-4.872c2.689,0,4.871,2.182,4.871,4.872C20.871,18.689,18.689,20.871,16,20.871z"></path><title>Link options.</title></g></g></g></g><g   id="j_89" ><path  stroke="#707070" d="M 3682 1829 L 3697 2129" id="v-1070" stroke-width="2" stroke-dasharray="30 30" fill="none" style="opacity: 1;"></path><path  fill="black" stroke="black" d="M 0 0 0 0" transform="matrix(0.04827698692679405,0.9988340139389038,-0.9988340139389038,0.04827698692679405,3682.25,1829)"></path><path  fill="#707070" stroke="#707070" d="M 20 0 L 0 10 L 20 20 z" id="v-1072" transform="matrix(-0.0482771210372448,-0.998833954334259,0.998833954334259,-0.0482771210372448,3686.76171875,2129.48291015625)" style="opacity: 1;"></path><path  d="M 3682 1829 L 3697 2129" id="v-1071" fill="none" style="cursor: auto; pointer-events: visiblepainted;"></path><g ><g id="v-1064"  label-idx="0" cursor="move" transform="matrix(1,0,0,1,3689.5,1979)" style="cursor: default; opacity: 1;"><rect joint-selector="rect" id="v-1067" fill="#ffffff" rx="3" ry="3" stroke="#ffffff" stroke-width="20px" pointer-events="none" width="0" height="0" transform="matrix(1,0,0,1,0,0)"></rect><text joint-selector="text" id="v-1066" font-size="24px" xml:space="preserve" display="none" y="0.8em" fill="#707070" text-anchor="middle" pointer-events="none" font-family="Open Sans" font-weight="normal"><tspan style="fill-opacity: 0; stroke-opacity: 0;"  dy="0">-</tspan></text></g><g id="v-1065"  label-idx="1" cursor="move" transform="matrix(1,0,0,1,3679.5,1989)" style="cursor: default; opacity: 1;"><rect joint-selector="rect" id="v-1069" fill="#ffffff" rx="3" ry="3"  width="0" height="0" transform="matrix(1,0,0,1,0,0)" display="none"></rect><text joint-selector="text" id="v-1068" fill="#000000" font-size="14" text-anchor="middle" pointer-events="none"></text></g></g><g  display="none" style="display: none;"></g><g  id="v-1074" display="none"><g  id="v-1062"><path  end="source" d="M 26 0 L 0 13 L 26 26 z"></path></g><g  id="v-1063"><path  end="target" d="M 26 0 L 0 13 L 26 26 z"></path></g></g><g  id="v-1073" display="none"><g  id="v-1061" transform="translate(3683.9975046777554, 1868.9500935551137) "><g  event="remove"><circle r="11"></circle><path transform="scale(.8) translate(-16, -16)" d="M24.778,21.419 19.276,15.917 24.777,10.415 21.949,7.585 16.447,13.087 10.945,7.585 8.117,10.415 13.618,15.917 8.116,21.419 10.946,24.248 16.447,18.746 21.948,24.248z"></path><title>Remove link.</title></g><g  event="link:options"><circle r="11" transform="translate(25)"></circle><path fill="white" transform="scale(.55) translate(29, -16)" d="M31.229,17.736c0.064-0.571,0.104-1.148,0.104-1.736s-0.04-1.166-0.104-1.737l-4.377-1.557c-0.218-0.716-0.504-1.401-0.851-2.05l1.993-4.192c-0.725-0.91-1.549-1.734-2.458-2.459l-4.193,1.994c-0.647-0.347-1.334-0.632-2.049-0.849l-1.558-4.378C17.165,0.708,16.588,0.667,16,0.667s-1.166,0.041-1.737,0.105L12.707,5.15c-0.716,0.217-1.401,0.502-2.05,0.849L6.464,4.005C5.554,4.73,4.73,5.554,4.005,6.464l1.994,4.192c-0.347,0.648-0.632,1.334-0.849,2.05l-4.378,1.557C0.708,14.834,0.667,15.412,0.667,16s0.041,1.165,0.105,1.736l4.378,1.558c0.217,0.715,0.502,1.401,0.849,2.049l-1.994,4.193c0.725,0.909,1.549,1.733,2.459,2.458l4.192-1.993c0.648,0.347,1.334,0.633,2.05,0.851l1.557,4.377c0.571,0.064,1.148,0.104,1.737,0.104c0.588,0,1.165-0.04,1.736-0.104l1.558-4.377c0.715-0.218,1.399-0.504,2.049-0.851l4.193,1.993c0.909-0.725,1.733-1.549,2.458-2.458l-1.993-4.193c0.347-0.647,0.633-1.334,0.851-2.049L31.229,17.736zM16,20.871c-2.69,0-4.872-2.182-4.872-4.871c0-2.69,2.182-4.872,4.872-4.872c2.689,0,4.871,2.182,4.871,4.872C20.871,18.689,18.689,20.871,16,20.871z"></path><title>Link options.</title></g></g></g></g><g   id="j_90" ><path  stroke="#707070" d="M 1533 1769 L 2591 2189" id="v-1084" stroke-width="2" stroke-dasharray="30 30" fill="none" style="opacity: 1;"></path><path  fill="black" stroke="black" d="M 0 0 0 0" transform="matrix(0.9291535019874573,0.36969417333602905,-0.36969417333602905,0.9291535019874573,1533,1768.52001953125)"></path><path  fill="#707070" stroke="#707070" d="M 20 0 L 0 10 L 20 20 z" id="v-1086" transform="matrix(-0.9291534423828125,-0.3696942627429962,0.3696942627429962,-0.9291534423828125,2587.302978515625,2198.771484375)" style="opacity: 1;"></path><path  d="M 1533 1769 L 2591 2189" id="v-1085" fill="none" style="cursor: auto; pointer-events: visiblepainted;"></path><g ><g id="v-1078"  label-idx="0" cursor="move" transform="matrix(1,0,0,1,2062,1979)" style="cursor: default; opacity: 1;"><rect joint-selector="rect" id="v-1081" fill="#ffffff" rx="3" ry="3" stroke="#ffffff" stroke-width="20px" pointer-events="none" width="0" height="0" transform="matrix(1,0,0,1,0,0)"></rect><text joint-selector="text" id="v-1080" font-size="24px" xml:space="preserve" display="none" y="0.8em" fill="#707070" text-anchor="middle" pointer-events="none" font-family="Open Sans" font-weight="normal"><tspan style="fill-opacity: 0; stroke-opacity: 0;"  dy="0">-</tspan></text></g><g id="v-1079"  label-idx="1" cursor="move" transform="matrix(1,0,0,1,2052,1989)" style="cursor: default; opacity: 1;"><rect joint-selector="rect" id="v-1083" fill="#ffffff" rx="3" ry="3"  width="0" height="0" transform="matrix(1,0,0,1,0,0)" display="none"></rect><text joint-selector="text" id="v-1082" fill="#000000" font-size="14" text-anchor="middle" pointer-events="none"></text></g></g><g  display="none" style="display: none;"></g><g  id="v-1088" display="none"><g  id="v-1076"><path  end="source" d="M 26 0 L 0 13 L 26 26 z"></path></g><g  id="v-1077"><path  end="target" d="M 26 0 L 0 13 L 26 26 z"></path></g></g><g  id="v-1087" display="none"><g  id="v-1075" transform="translate(1570.1777158783987, 1783.7586395736553) "><g  event="remove"><circle r="11"></circle><path transform="scale(.8) translate(-16, -16)" d="M24.778,21.419 19.276,15.917 24.777,10.415 21.949,7.585 16.447,13.087 10.945,7.585 8.117,10.415 13.618,15.917 8.116,21.419 10.946,24.248 16.447,18.746 21.948,24.248z"></path><title>Remove link.</title></g><g  event="link:options"><circle r="11" transform="translate(25)"></circle><path fill="white" transform="scale(.55) translate(29, -16)" d="M31.229,17.736c0.064-0.571,0.104-1.148,0.104-1.736s-0.04-1.166-0.104-1.737l-4.377-1.557c-0.218-0.716-0.504-1.401-0.851-2.05l1.993-4.192c-0.725-0.91-1.549-1.734-2.458-2.459l-4.193,1.994c-0.647-0.347-1.334-0.632-2.049-0.849l-1.558-4.378C17.165,0.708,16.588,0.667,16,0.667s-1.166,0.041-1.737,0.105L12.707,5.15c-0.716,0.217-1.401,0.502-2.05,0.849L6.464,4.005C5.554,4.73,4.73,5.554,4.005,6.464l1.994,4.192c-0.347,0.648-0.632,1.334-0.849,2.05l-4.378,1.557C0.708,14.834,0.667,15.412,0.667,16s0.041,1.165,0.105,1.736l4.378,1.558c0.217,0.715,0.502,1.401,0.849,2.049l-1.994,4.193c0.725,0.909,1.549,1.733,2.459,2.458l4.192-1.993c0.648,0.347,1.334,0.633,2.05,0.851l1.557,4.377c0.571,0.064,1.148,0.104,1.737,0.104c0.588,0,1.165-0.04,1.736-0.104l1.558-4.377c0.715-0.218,1.399-0.504,2.049-0.851l4.193,1.993c0.909-0.725,1.733-1.549,2.458-2.458l-1.993-4.193c0.347-0.647,0.633-1.334,0.851-2.049L31.229,17.736zM16,20.871c-2.69,0-4.872-2.182-4.872-4.871c0-2.69,2.182-4.872,4.872-4.872c2.689,0,4.871,2.182,4.871,4.872C20.871,18.689,18.689,20.871,16,20.871z"></path><title>Link options.</title></g></g></g></g><g   id="j_91" ><path  stroke="#707070" d="M 3460 1829 L 3031 2129" id="v-1098" stroke-width="2" stroke-dasharray="30 30" fill="none" style="opacity: 1;"></path><path  fill="black" stroke="black" d="M 0 0 0 0" transform="matrix(-0.8198144435882568,0.5726292729377747,-0.5726292729377747,-0.8198144435882568,3460.25,1829)"></path><path  fill="#707070" stroke="#707070" d="M 20 0 L 0 10 L 20 20 z" id="v-1100" transform="matrix(0.8198144435882568,-0.5726292729377747,0.5726292729377747,0.8198144435882568,3025.02392578125,2120.8017578125)" style="opacity: 1;"></path><path  d="M 3460 1829 L 3031 2129" id="v-1099" fill="none" style="cursor: auto; pointer-events: visiblepainted;"></path><g ><g id="v-1092"  label-idx="0" cursor="move" transform="matrix(1,0,0,1,3245.5,1979)" style="cursor: default; opacity: 1;"><rect joint-selector="rect" id="v-1095" fill="#ffffff" rx="3" ry="3" stroke="#ffffff" stroke-width="20px" pointer-events="none" width="0" height="0" transform="matrix(1,0,0,1,0,0)"></rect><text joint-selector="text" id="v-1094" font-size="24px" xml:space="preserve" display="none" y="0.8em" fill="#707070" text-anchor="middle" pointer-events="none" font-family="Open Sans" font-weight="normal"><tspan style="fill-opacity: 0; stroke-opacity: 0;"  dy="0">-</tspan></text></g><g id="v-1093"  label-idx="1" cursor="move" transform="matrix(1,0,0,1,3235.5,1989)" style="cursor: default; opacity: 1;"><rect joint-selector="rect" id="v-1097" fill="#ffffff" rx="3" ry="3"  width="0" height="0" transform="matrix(1,0,0,1,0,0)" display="none"></rect><text joint-selector="text" id="v-1096" fill="#000000" font-size="14" text-anchor="middle" pointer-events="none"></text></g></g><g  display="none" style="display: none;"></g><g  id="v-1102" display="none"><g  id="v-1090"><path  end="source" d="M 26 0 L 0 13 L 26 26 z"></path></g><g  id="v-1091"><path  end="target" d="M 26 0 L 0 13 L 26 26 z"></path></g></g><g  id="v-1101" display="none"><g  id="v-1089" transform="translate(3427.2199575459385, 1851.923106611232) "><g  event="remove"><circle r="11"></circle><path transform="scale(.8) translate(-16, -16)" d="M24.778,21.419 19.276,15.917 24.777,10.415 21.949,7.585 16.447,13.087 10.945,7.585 8.117,10.415 13.618,15.917 8.116,21.419 10.946,24.248 16.447,18.746 21.948,24.248z"></path><title>Remove link.</title></g><g  event="link:options"><circle r="11" transform="translate(25)"></circle><path fill="white" transform="scale(.55) translate(29, -16)" d="M31.229,17.736c0.064-0.571,0.104-1.148,0.104-1.736s-0.04-1.166-0.104-1.737l-4.377-1.557c-0.218-0.716-0.504-1.401-0.851-2.05l1.993-4.192c-0.725-0.91-1.549-1.734-2.458-2.459l-4.193,1.994c-0.647-0.347-1.334-0.632-2.049-0.849l-1.558-4.378C17.165,0.708,16.588,0.667,16,0.667s-1.166,0.041-1.737,0.105L12.707,5.15c-0.716,0.217-1.401,0.502-2.05,0.849L6.464,4.005C5.554,4.73,4.73,5.554,4.005,6.464l1.994,4.192c-0.347,0.648-0.632,1.334-0.849,2.05l-4.378,1.557C0.708,14.834,0.667,15.412,0.667,16s0.041,1.165,0.105,1.736l4.378,1.558c0.217,0.715,0.502,1.401,0.849,2.049l-1.994,4.193c0.725,0.909,1.549,1.733,2.459,2.458l4.192-1.993c0.648,0.347,1.334,0.633,2.05,0.851l1.557,4.377c0.571,0.064,1.148,0.104,1.737,0.104c0.588,0,1.165-0.04,1.736-0.104l1.558-4.377c0.715-0.218,1.399-0.504,2.049-0.851l4.193,1.993c0.909-0.725,1.733-1.549,2.458-2.458l-1.993-4.193c0.347-0.647,0.633-1.334,0.851-2.049L31.229,17.736zM16,20.871c-2.69,0-4.872-2.182-4.872-4.871c0-2.69,2.182-4.872,4.872-4.872c2.689,0,4.871,2.182,4.871,4.872C20.871,18.689,18.689,20.871,16,20.871z"></path><title>Link options.</title></g></g></g></g><g   id="j_92" ><path  stroke="#707070" d="M 2816 1829 L 2816 2129" id="v-1112" stroke-width="2" stroke-dasharray="30 30" fill="none" style="opacity: 1;"></path><path  fill="black" stroke="black" d="M 0 0 0 0" transform="matrix(6.123234262925839e-17,1,-1,6.123234262925839e-17,2816,1829)"></path><path  fill="#707070" stroke="#707070" d="M 20 0 L 0 10 L 20 20 z" id="v-1114" transform="matrix(-1.8369701465288538e-16,-1,1,-1.8369701465288538e-16,2806,2129)" style="opacity: 1;"></path><path  d="M 2816 1829 L 2816 2129" id="v-1113" fill="none" style="cursor: auto; pointer-events: visiblepainted;"></path><g ><g id="v-1106"  label-idx="0" cursor="move" transform="matrix(1,0,0,1,2816,1979)" style="cursor: default; opacity: 1;"><rect joint-selector="rect" id="v-1109" fill="#ffffff" rx="3" ry="3" stroke="#ffffff" stroke-width="20px" pointer-events="none" width="0" height="0" transform="matrix(1,0,0,1,0,0)"></rect><text joint-selector="text" id="v-1108" font-size="24px" xml:space="preserve" display="none" y="0.8em" fill="#707070" text-anchor="middle" pointer-events="none" font-family="Open Sans" font-weight="normal"><tspan style="fill-opacity: 0; stroke-opacity: 0;"  dy="0">-</tspan></text></g><g id="v-1107"  label-idx="1" cursor="move" transform="matrix(1,0,0,1,2806,1989)" style="cursor: default; opacity: 1;"><rect joint-selector="rect" id="v-1111" fill="#ffffff" rx="3" ry="3"  width="0" height="0" transform="matrix(1,0,0,1,0,0)" display="none"></rect><text joint-selector="text" id="v-1110" fill="#000000" font-size="14" text-anchor="middle" pointer-events="none"></text></g></g><g  display="none" style="display: none;"></g><g  id="v-1116" display="none"><g  id="v-1104"><path  end="source" d="M 26 0 L 0 13 L 26 26 z"></path></g><g  id="v-1105"><path  end="target" d="M 26 0 L 0 13 L 26 26 z"></path></g></g><g  id="v-1115" display="none"><g  id="v-1103" transform="translate(2816, 1869) "><g  event="remove"><circle r="11"></circle><path transform="scale(.8) translate(-16, -16)" d="M24.778,21.419 19.276,15.917 24.777,10.415 21.949,7.585 16.447,13.087 10.945,7.585 8.117,10.415 13.618,15.917 8.116,21.419 10.946,24.248 16.447,18.746 21.948,24.248z"></path><title>Remove link.</title></g><g  event="link:options"><circle r="11" transform="translate(25)"></circle><path fill="white" transform="scale(.55) translate(29, -16)" d="M31.229,17.736c0.064-0.571,0.104-1.148,0.104-1.736s-0.04-1.166-0.104-1.737l-4.377-1.557c-0.218-0.716-0.504-1.401-0.851-2.05l1.993-4.192c-0.725-0.91-1.549-1.734-2.458-2.459l-4.193,1.994c-0.647-0.347-1.334-0.632-2.049-0.849l-1.558-4.378C17.165,0.708,16.588,0.667,16,0.667s-1.166,0.041-1.737,0.105L12.707,5.15c-0.716,0.217-1.401,0.502-2.05,0.849L6.464,4.005C5.554,4.73,4.73,5.554,4.005,6.464l1.994,4.192c-0.347,0.648-0.632,1.334-0.849,2.05l-4.378,1.557C0.708,14.834,0.667,15.412,0.667,16s0.041,1.165,0.105,1.736l4.378,1.558c0.217,0.715,0.502,1.401,0.849,2.049l-1.994,4.193c0.725,0.909,1.549,1.733,2.459,2.458l4.192-1.993c0.648,0.347,1.334,0.633,2.05,0.851l1.557,4.377c0.571,0.064,1.148,0.104,1.737,0.104c0.588,0,1.165-0.04,1.736-0.104l1.558-4.377c0.715-0.218,1.399-0.504,2.049-0.851l4.193,1.993c0.909-0.725,1.733-1.549,2.458-2.458l-1.993-4.193c0.347-0.647,0.633-1.334,0.851-2.049L31.229,17.736zM16,20.871c-2.69,0-4.872-2.182-4.872-4.871c0-2.69,2.182-4.872,4.872-4.872c2.689,0,4.871,2.182,4.871,4.872C20.871,18.689,18.689,20.871,16,20.871z"></path><title>Link options.</title></g></g></g></g><g   id="j_93" ><path  stroke="#707070" d="M 2620 1229 L 2251 1529" id="v-1126" stroke-width="2" stroke-dasharray="30 30" fill="none" style="opacity: 1;"></path><path  fill="black" stroke="black" d="M 0 0 0 0" transform="matrix(-0.7759210467338562,0.6308300495147705,-0.6308300495147705,-0.7759210467338562,2619.5,1229)"></path><path  fill="#707070" stroke="#707070" d="M 20 0 L 0 10 L 20 20 z" id="v-1128" transform="matrix(0.7759210467338562,-0.6308300495147705,0.6308300495147705,0.7759210467338562,2244.191650390625,1521.24072265625)" style="opacity: 1;"></path><path  d="M 2620 1229 L 2251 1529" id="v-1127" fill="none" style="cursor: auto; pointer-events: visiblepainted;"></path><g ><g id="v-1120"  label-idx="0" cursor="move" transform="matrix(1,0,0,1,2435.5,1379)" style="cursor: default; opacity: 1;"><rect joint-selector="rect" id="v-1123" fill="#ffffff" rx="3" ry="3" stroke="#ffffff" stroke-width="20px" pointer-events="none" width="0" height="0" transform="matrix(1,0,0,1,0,0)"></rect><text joint-selector="text" id="v-1122" font-size="24px" xml:space="preserve" display="none" y="0.8em" fill="#707070" text-anchor="middle" pointer-events="none" font-family="Open Sans" font-weight="normal"><tspan style="fill-opacity: 0; stroke-opacity: 0;"  dy="0">-</tspan></text></g><g id="v-1121"  label-idx="1" cursor="move" transform="matrix(1,0,0,1,2425.5,1389)" style="cursor: default; opacity: 1;"><rect joint-selector="rect" id="v-1125" fill="#ffffff" rx="3" ry="3"  width="0" height="0" transform="matrix(1,0,0,1,0,0)" display="none"></rect><text joint-selector="text" id="v-1124" fill="#000000" font-size="14" text-anchor="middle" pointer-events="none"></text></g></g><g  display="none" style="display: none;"></g><g  id="v-1130" display="none"><g  id="v-1118"><path  end="source" d="M 26 0 L 0 13 L 26 26 z"></path></g><g  id="v-1119"><path  end="target" d="M 26 0 L 0 13 L 26 26 z"></path></g></g><g  id="v-1129" display="none"><g  id="v-1117" transform="translate(2588.963159840393, 1254.2332033817945) "><g  event="remove"><circle r="11"></circle><path transform="scale(.8) translate(-16, -16)" d="M24.778,21.419 19.276,15.917 24.777,10.415 21.949,7.585 16.447,13.087 10.945,7.585 8.117,10.415 13.618,15.917 8.116,21.419 10.946,24.248 16.447,18.746 21.948,24.248z"></path><title>Remove link.</title></g><g  event="link:options"><circle r="11" transform="translate(25)"></circle><path fill="white" transform="scale(.55) translate(29, -16)" d="M31.229,17.736c0.064-0.571,0.104-1.148,0.104-1.736s-0.04-1.166-0.104-1.737l-4.377-1.557c-0.218-0.716-0.504-1.401-0.851-2.05l1.993-4.192c-0.725-0.91-1.549-1.734-2.458-2.459l-4.193,1.994c-0.647-0.347-1.334-0.632-2.049-0.849l-1.558-4.378C17.165,0.708,16.588,0.667,16,0.667s-1.166,0.041-1.737,0.105L12.707,5.15c-0.716,0.217-1.401,0.502-2.05,0.849L6.464,4.005C5.554,4.73,4.73,5.554,4.005,6.464l1.994,4.192c-0.347,0.648-0.632,1.334-0.849,2.05l-4.378,1.557C0.708,14.834,0.667,15.412,0.667,16s0.041,1.165,0.105,1.736l4.378,1.558c0.217,0.715,0.502,1.401,0.849,2.049l-1.994,4.193c0.725,0.909,1.549,1.733,2.459,2.458l4.192-1.993c0.648,0.347,1.334,0.633,2.05,0.851l1.557,4.377c0.571,0.064,1.148,0.104,1.737,0.104c0.588,0,1.165-0.04,1.736-0.104l1.558-4.377c0.715-0.218,1.399-0.504,2.049-0.851l4.193,1.993c0.909-0.725,1.733-1.549,2.458-2.458l-1.993-4.193c0.347-0.647,0.633-1.334,0.851-2.049L31.229,17.736zM16,20.871c-2.69,0-4.872-2.182-4.872-4.871c0-2.69,2.182-4.872,4.872-4.872c2.689,0,4.871,2.182,4.871,4.872C20.871,18.689,18.689,20.871,16,20.871z"></path><title>Link options.</title></g></g></g></g><g   id="j_94" ><path  stroke="#707070" d="M 1868 1229 L 1495 1529" id="v-1140" stroke-width="2" stroke-dasharray="30 30" fill="none" style="opacity: 1;"></path><path  fill="black" stroke="black" d="M 0 0 0 0" transform="matrix(-0.7792356014251709,0.6267310976982117,-0.6267310976982117,-0.7792356014251709,1867.5,1229)"></path><path  fill="#707070" stroke="#707070" d="M 20 0 L 0 10 L 20 20 z" id="v-1142" transform="matrix(0.7792356014251709,-0.6267310976982117,0.6267310976982117,0.7792356014251709,1488.232666015625,1521.2076416015625)" style="opacity: 1;"></path><path  d="M 1868 1229 L 1495 1529" id="v-1141" fill="none" style="cursor: auto; pointer-events: visiblepainted;"></path><g ><g id="v-1134"  label-idx="0" cursor="move" transform="matrix(1,0,0,1,1681.5,1379)" style="cursor: default; opacity: 1;"><rect joint-selector="rect" id="v-1137" fill="#ffffff" rx="3" ry="3" stroke="#ffffff" stroke-width="20px" pointer-events="none" width="0" height="0" transform="matrix(1,0,0,1,0,0)"></rect><text joint-selector="text" id="v-1136" font-size="24px" xml:space="preserve" display="none" y="0.8em" fill="#707070" text-anchor="middle" pointer-events="none" font-family="Open Sans" font-weight="normal"><tspan style="fill-opacity: 0; stroke-opacity: 0;"  dy="0">-</tspan></text></g><g id="v-1135"  label-idx="1" cursor="move" transform="matrix(1,0,0,1,1671.5,1389)" style="cursor: default; opacity: 1;"><rect joint-selector="rect" id="v-1139" fill="#ffffff" rx="3" ry="3"  width="0" height="0" transform="matrix(1,0,0,1,0,0)" display="none"></rect><text joint-selector="text" id="v-1138" fill="#000000" font-size="14" text-anchor="middle" pointer-events="none"></text></g></g><g  display="none" style="display: none;"></g><g  id="v-1144" display="none"><g  id="v-1132"><path  end="source" d="M 26 0 L 0 13 L 26 26 z"></path></g><g  id="v-1133"><path  end="target" d="M 26 0 L 0 13 L 26 26 z"></path></g></g><g  id="v-1143" display="none"><g  id="v-1131" transform="translate(1836.8305748123928, 1254.0692427782365) "><g  event="remove"><circle r="11"></circle><path transform="scale(.8) translate(-16, -16)" d="M24.778,21.419 19.276,15.917 24.777,10.415 21.949,7.585 16.447,13.087 10.945,7.585 8.117,10.415 13.618,15.917 8.116,21.419 10.946,24.248 16.447,18.746 21.948,24.248z"></path><title>Remove link.</title></g><g  event="link:options"><circle r="11" transform="translate(25)"></circle><path fill="white" transform="scale(.55) translate(29, -16)" d="M31.229,17.736c0.064-0.571,0.104-1.148,0.104-1.736s-0.04-1.166-0.104-1.737l-4.377-1.557c-0.218-0.716-0.504-1.401-0.851-2.05l1.993-4.192c-0.725-0.91-1.549-1.734-2.458-2.459l-4.193,1.994c-0.647-0.347-1.334-0.632-2.049-0.849l-1.558-4.378C17.165,0.708,16.588,0.667,16,0.667s-1.166,0.041-1.737,0.105L12.707,5.15c-0.716,0.217-1.401,0.502-2.05,0.849L6.464,4.005C5.554,4.73,4.73,5.554,4.005,6.464l1.994,4.192c-0.347,0.648-0.632,1.334-0.849,2.05l-4.378,1.557C0.708,14.834,0.667,15.412,0.667,16s0.041,1.165,0.105,1.736l4.378,1.558c0.217,0.715,0.502,1.401,0.849,2.049l-1.994,4.193c0.725,0.909,1.549,1.733,2.459,2.458l4.192-1.993c0.648,0.347,1.334,0.633,2.05,0.851l1.557,4.377c0.571,0.064,1.148,0.104,1.737,0.104c0.588,0,1.165-0.04,1.736-0.104l1.558-4.377c0.715-0.218,1.399-0.504,2.049-0.851l4.193,1.993c0.909-0.725,1.733-1.549,2.458-2.458l-1.993-4.193c0.347-0.647,0.633-1.334,0.851-2.049L31.229,17.736zM16,20.871c-2.69,0-4.872-2.182-4.872-4.871c0-2.69,2.182-4.872,4.872-4.872c2.689,0,4.871,2.182,4.871,4.872C20.871,18.689,18.689,20.871,16,20.871z"></path><title>Link options.</title></g></g></g></g></g><g ></g><g ></g><g ></g></g></svg>