<svg xmlns="http://www.w3.org/2000/svg" xmlns:xlink="http://www.w3.org/1999/xlink" version="1.1" viewBox="0 0 866 2016" style="background: #ffffff"><defs joint-selector="defs"></defs><g  joint-selector="layers" transform="matrix(1,0,0,1,0,0)"><g ></g><g ><g   id="j_45"  transform="translate(20,1971)"><g id="v-539"><text  id="v-540" font-size="22px" xml:space="preserve" y="0.8em" font-weight="normal" text-anchor="start" fill="#aaaaaa" pointer-events="none" font-family="Open Sans" display="block"><tspan  dy="0">Sunday, March 12, 2023 at 11:38 AM Central European Standard Time</tspan></text></g></g><g   id="j_44"  transform="translate(20,1927)"><g id="v-537"><text  id="v-538" font-size="36px" xml:space="preserve" y="0.8em" font-weight="normal" text-anchor="start" fill="#000000" pointer-events="none" font-family="Open Sans" display="block"><tspan  dy="0">[System Context] AngularAndSpring System</tspan></text></g></g><g   id="j_39"  transform="translate(233,208)" style=""><g  id="v-470" style="opacity: 1;"><rect  x="0" y="160" width="400" height="240" rx="70" id="v-472" stroke="#c7c7c7" stroke-width="2" pointer-events="visiblePainted" fill="#dddddd" style="fill: rgb(221, 221, 221); stroke: rgb(199, 199, 199);"></rect><circle  cx="200" cy="88.88888888888889" r="88.88888888888889" id="v-471" stroke="#c7c7c7" stroke-width="2" pointer-events="visiblePainted" fill="#dddddd" style="fill: rgb(221, 221, 221); stroke: rgb(199, 199, 199);"></circle><line  x1="80" y1="266.6666666666667" x2="80" y2="400" id="v-478" stroke="#c7c7c7" stroke-width="2" style="stroke: rgb(199, 199, 199);"></line><line  x1="320" y1="266.6666666666667" x2="320" y2="400" id="v-479" stroke="#c7c7c7" stroke-width="2" style="stroke: rgb(199, 199, 199);"></line><text  id="v-473" font-size="34" xml:space="preserve" y="0.8em" font-weight="bold" text-anchor="middle" pointer-events="visible" font-family="Open Sans" fill="#000000" transform="matrix(1,0,0,1,200,244.39999389648438)" style="fill: rgb(0, 0, 0);"><tspan  dy="0">User</tspan></text><text  id="v-474" font-size="17" xml:space="preserve" y="0.8em" text-anchor="middle" font-family="Open Sans" fill="#000000" transform="matrix(1,0,0,1,200,285.20001220703125)" style="fill: rgb(0, 0, 0);"><tspan  dy="0">[Person]</tspan></text><text  id="v-475" font-size="24" xml:space="preserve" display="none" y="0.8em" text-anchor="middle" font-family="Open Sans" fill="#000000" transform="matrix(1,0,0,1,200,315.6000061035156)" style="fill: rgb(0, 0, 0);"><tspan style="fill-opacity: 0; stroke-opacity: 0;"  dy="0">-</tspan></text><g  id="v-476" font-weight="normal" text-anchor="middle" color="#000000" opacity="0.75" transform="matrix(1,0,0,1,197.5,325.6000061035156)" style="fill: rgb(0, 0, 0);" display="none"><g ></g><g ></g><g ></g><g ></g></g><image  id="v-477"></image></g></g><g   id="j_40"  transform="translate(208,908)" style=""><g  id="v-486" style="opacity: 1;"><rect  id="v-487" rx="1" ry="1" stroke="#c7c7c7" stroke-width="2" pointer-events="visiblePainted" fill="#dddddd" width="450" height="300" style="fill: rgb(221, 221, 221); stroke: rgb(199, 199, 199);"></rect><text  id="v-488" font-size="34" xml:space="preserve" y="0.8em" font-weight="bold" text-anchor="middle" pointer-events="visible" font-family="Open Sans" fill="#000000" transform="matrix(1,0,0,1,225,79.5999984741211)" style="fill: rgb(0, 0, 0);"><tspan  dy="0">AngularAndSpring</tspan><tspan dy="1.2em" x="0" >System</tspan></text><text  id="v-489" font-size="17" xml:space="preserve" y="0.8em" text-anchor="middle" font-family="Open Sans" fill="#000000" transform="matrix(1,0,0,1,225,161.1999969482422)" style="fill: rgb(0, 0, 0);"><tspan  dy="0">[Software System]</tspan></text><text  id="v-490" font-size="24" xml:space="preserve" y="0.8em" text-anchor="middle" font-family="Open Sans" fill="#000000" transform="matrix(1,0,0,1,225,191.60000610351562)" style="fill: rgb(0, 0, 0);"><tspan  dy="0">System of multiple applications</tspan></text><g  id="v-491" color="#000000" opacity="0.75" transform="matrix(1,0,0,1,210,230.39999389648438)" style="fill: rgb(0, 0, 0);" display="none"><g  transform="translate(5 0)"><svg xmlns="http://www.w3.org/2000/svg" width="20" height="20" fill="currentColor" viewBox="0 0 16 16"><path fill-rule="evenodd" d="M6.5 12a5.5 5.5 0 1 0 0-11 5.5 5.5 0 0 0 0 11zM13 6.5a6.5 6.5 0 1 1-13 0 6.5 6.5 0 0 1 13 0z"></path><path d="M10.344 11.742c.03.04.062.078.098.115l3.85 3.85a1 1 0 0 0 1.415-1.414l-3.85-3.85a1.007 1.007 0 0 0-.115-.1 6.538 6.538 0 0 1-1.398 1.4z"></path><path fill-rule="evenodd" d="M6.5 3a.5.5 0 0 1 .5.5V6h2.5a.5.5 0 0 1 0 1H7v2.5a.5.5 0 0 1-1 0V7H3.5a.5.5 0 0 1 0-1H6V3.5a.5.5 0 0 1 .5-.5z"></path></svg></g><g ></g><g ></g><g ></g></g><image  id="v-492"></image></g></g><g   id="j_41"  transform="translate(208,1508)" style=""><g  id="v-496" style="opacity: 1;"><rect  id="v-497" rx="1" ry="1" stroke="#c7c7c7" stroke-width="2" pointer-events="visiblePainted" fill="#dddddd" width="450" height="300" style="fill: rgb(221, 221, 221); stroke: rgb(199, 199, 199);"></rect><text  id="v-498" font-size="34" xml:space="preserve" y="0.8em" font-weight="bold" text-anchor="middle" pointer-events="visible" font-family="Open Sans" fill="#000000" transform="matrix(1,0,0,1,225,79.5999984741211)" style="fill: rgb(0, 0, 0);"><tspan  dy="0">Crypto Currency</tspan><tspan dy="1.2em" x="0" >Exchanges</tspan></text><text  id="v-499" font-size="17" xml:space="preserve" y="0.8em" text-anchor="middle" font-family="Open Sans" fill="#000000" transform="matrix(1,0,0,1,225,161.1999969482422)" style="fill: rgb(0, 0, 0);"><tspan  dy="0">[Software System]</tspan></text><text  id="v-500" font-size="24" xml:space="preserve" y="0.8em" text-anchor="middle" font-family="Open Sans" fill="#000000" transform="matrix(1,0,0,1,225,191.60000610351562)" style="fill: rgb(0, 0, 0);"><tspan  dy="0">Multiple Exchanges</tspan></text><g  id="v-501" color="#000000" opacity="0.75" transform="matrix(1,0,0,1,222.5,230.39999389648438)" style="fill: rgb(0, 0, 0);" display="none"><g ></g><g ></g><g ></g><g ></g></g><image  id="v-502"></image></g></g><g   id="j_42" ><path  stroke="#707070" d="M 433 1208 L 433 1508" id="v-515" stroke-width="2" stroke-dasharray="30 30" fill="none" style="opacity: 1;"></path><path  fill="black" stroke="black" d="M 0 0 0 0" transform="matrix(6.123234262925839e-17,1,-1,6.123234262925839e-17,433,1208)"></path><path  fill="#707070" stroke="#707070" d="M 20 0 L 0 10 L 20 20 z" id="v-517" transform="matrix(-1.8369701465288538e-16,-1,1,-1.8369701465288538e-16,423,1508)" style="opacity: 1;"></path><path  d="M 433 1208 L 433 1508" id="v-516" fill="none" style="cursor: auto; pointer-events: visiblepainted;"></path><g ><g id="v-509"  label-idx="0" cursor="move" transform="matrix(1,0,0,1,433,1358)" style="cursor: default; opacity: 1;"><rect joint-selector="rect" id="v-512" fill="#ffffff" rx="3" ry="3" stroke="#ffffff" stroke-width="20px" pointer-events="none" width="174.93167114257812" height="90.13729095458984" transform="matrix(1,0,0,1,-87.0999984741211,-45.099998474121094)"></rect><text joint-selector="text" id="v-511" font-size="24px" xml:space="preserve" y="0.8em" fill="#707070" text-anchor="middle" pointer-events="none" font-family="Open Sans" font-weight="normal" transform="matrix(1,0,0,1,0,-39.099998474121094)"><tspan  dy="0">import quotes /</tspan><tspan dy="1.2em" x="0" >request order</tspan><tspan dy="1.2em" x="0" >book</tspan></text></g><g id="v-510"  label-idx="1" cursor="move" transform="matrix(1,0,0,1,423,1411.199951171875)" style="cursor: default; opacity: 1;"><rect joint-selector="rect" id="v-514" fill="#ffffff" rx="3" ry="3"  width="0" height="0" transform="matrix(1,0,0,1,0,0)" display="none"></rect><text joint-selector="text" id="v-513" fill="#000000" font-size="14" text-anchor="middle" pointer-events="none"></text></g></g><g  display="none" style="display: none;"></g><g  id="v-519" display="none"><g  id="v-507"><path  end="source" d="M 26 0 L 0 13 L 26 26 z"></path></g><g  id="v-508"><path  end="target" d="M 26 0 L 0 13 L 26 26 z"></path></g></g><g  id="v-518" display="none"><g  id="v-506" transform="translate(433, 1248) "><g  event="remove"><circle r="11"></circle><path transform="scale(.8) translate(-16, -16)" d="M24.778,21.419 19.276,15.917 24.777,10.415 21.949,7.585 16.447,13.087 10.945,7.585 8.117,10.415 13.618,15.917 8.116,21.419 10.946,24.248 16.447,18.746 21.948,24.248z"></path><title>Remove link.</title></g><g  event="link:options"><circle r="11" transform="translate(25)"></circle><path fill="white" transform="scale(.55) translate(29, -16)" d="M31.229,17.736c0.064-0.571,0.104-1.148,0.104-1.736s-0.04-1.166-0.104-1.737l-4.377-1.557c-0.218-0.716-0.504-1.401-0.851-2.05l1.993-4.192c-0.725-0.91-1.549-1.734-2.458-2.459l-4.193,1.994c-0.647-0.347-1.334-0.632-2.049-0.849l-1.558-4.378C17.165,0.708,16.588,0.667,16,0.667s-1.166,0.041-1.737,0.105L12.707,5.15c-0.716,0.217-1.401,0.502-2.05,0.849L6.464,4.005C5.554,4.73,4.73,5.554,4.005,6.464l1.994,4.192c-0.347,0.648-0.632,1.334-0.849,2.05l-4.378,1.557C0.708,14.834,0.667,15.412,0.667,16s0.041,1.165,0.105,1.736l4.378,1.558c0.217,0.715,0.502,1.401,0.849,2.049l-1.994,4.193c0.725,0.909,1.549,1.733,2.459,2.458l4.192-1.993c0.648,0.347,1.334,0.633,2.05,0.851l1.557,4.377c0.571,0.064,1.148,0.104,1.737,0.104c0.588,0,1.165-0.04,1.736-0.104l1.558-4.377c0.715-0.218,1.399-0.504,2.049-0.851l4.193,1.993c0.909-0.725,1.733-1.549,2.458-2.458l-1.993-4.193c0.347-0.647,0.633-1.334,0.851-2.049L31.229,17.736zM16,20.871c-2.69,0-4.872-2.182-4.872-4.871c0-2.69,2.182-4.872,4.872-4.872c2.689,0,4.871,2.182,4.871,4.872C20.871,18.689,18.689,20.871,16,20.871z"></path><title>Link options.</title></g></g></g></g><g   id="j_43" ><path  stroke="#707070" d="M 433 608 L 433 908" id="v-532" stroke-width="2" stroke-dasharray="30 30" fill="none" style="opacity: 1;"></path><path  fill="black" stroke="black" d="M 0 0 0 0" transform="matrix(6.123234262925839e-17,1,-1,6.123234262925839e-17,433,608)"></path><path  fill="#707070" stroke="#707070" d="M 20 0 L 0 10 L 20 20 z" id="v-534" transform="matrix(-1.8369701465288538e-16,-1,1,-1.8369701465288538e-16,423,908)" style="opacity: 1;"></path><path  d="M 433 608 L 433 908" id="v-533" fill="none" style="cursor: auto; pointer-events: visiblepainted;"></path><g ><g id="v-526"  label-idx="0" cursor="move" transform="matrix(1,0,0,1,433,758)" style="cursor: default; opacity: 1;"><rect joint-selector="rect" id="v-529" fill="#ffffff" rx="3" ry="3" stroke="#ffffff" stroke-width="20px" pointer-events="none" width="187.50924682617188" height="90.13729095458984" transform="matrix(1,0,0,1,-93.80000305175781,-45.099998474121094)"></rect><text joint-selector="text" id="v-528" font-size="24px" xml:space="preserve" y="0.8em" fill="#707070" text-anchor="middle" pointer-events="none" font-family="Open Sans" font-weight="normal" transform="matrix(1,0,0,1,0,-39.099998474121094)"><tspan  dy="0">views quotes /</tspan><tspan dy="1.2em" x="0" >charts / statistics</tspan><tspan dy="1.2em" x="0" >/ order book</tspan></text></g><g id="v-527"  label-idx="1" cursor="move" transform="matrix(1,0,0,1,423,811.2000122070312)" style="cursor: default; opacity: 1;"><rect joint-selector="rect" id="v-531" fill="#ffffff" rx="3" ry="3"  width="0" height="0" transform="matrix(1,0,0,1,0,0)" display="none"></rect><text joint-selector="text" id="v-530" fill="#000000" font-size="14" text-anchor="middle" pointer-events="none"></text></g></g><g  display="none" style="display: none;"></g><g  id="v-536" display="none"><g  id="v-524"><path  end="source" d="M 26 0 L 0 13 L 26 26 z"></path></g><g  id="v-525"><path  end="target" d="M 26 0 L 0 13 L 26 26 z"></path></g></g><g  id="v-535" display="none"><g  id="v-523" transform="translate(433, 648) "><g  event="remove"><circle r="11"></circle><path transform="scale(.8) translate(-16, -16)" d="M24.778,21.419 19.276,15.917 24.777,10.415 21.949,7.585 16.447,13.087 10.945,7.585 8.117,10.415 13.618,15.917 8.116,21.419 10.946,24.248 16.447,18.746 21.948,24.248z"></path><title>Remove link.</title></g><g  event="link:options"><circle r="11" transform="translate(25)"></circle><path fill="white" transform="scale(.55) translate(29, -16)" d="M31.229,17.736c0.064-0.571,0.104-1.148,0.104-1.736s-0.04-1.166-0.104-1.737l-4.377-1.557c-0.218-0.716-0.504-1.401-0.851-2.05l1.993-4.192c-0.725-0.91-1.549-1.734-2.458-2.459l-4.193,1.994c-0.647-0.347-1.334-0.632-2.049-0.849l-1.558-4.378C17.165,0.708,16.588,0.667,16,0.667s-1.166,0.041-1.737,0.105L12.707,5.15c-0.716,0.217-1.401,0.502-2.05,0.849L6.464,4.005C5.554,4.73,4.73,5.554,4.005,6.464l1.994,4.192c-0.347,0.648-0.632,1.334-0.849,2.05l-4.378,1.557C0.708,14.834,0.667,15.412,0.667,16s0.041,1.165,0.105,1.736l4.378,1.558c0.217,0.715,0.502,1.401,0.849,2.049l-1.994,4.193c0.725,0.909,1.549,1.733,2.459,2.458l4.192-1.993c0.648,0.347,1.334,0.633,2.05,0.851l1.557,4.377c0.571,0.064,1.148,0.104,1.737,0.104c0.588,0,1.165-0.04,1.736-0.104l1.558-4.377c0.715-0.218,1.399-0.504,2.049-0.851l4.193,1.993c0.909-0.725,1.733-1.549,2.458-2.458l-1.993-4.193c0.347-0.647,0.633-1.334,0.851-2.049L31.229,17.736zM16,20.871c-2.69,0-4.872-2.182-4.872-4.871c0-2.69,2.182-4.872,4.872-4.872c2.689,0,4.871,2.182,4.871,4.872C20.871,18.689,18.689,20.871,16,20.871z"></path><title>Link options.</title></g></g></g></g></g><g ></g><g ></g><g ></g></g></svg>